<mxfile host="app.diagrams.net" modified="2021-10-05T16:06:34.576Z" agent="5.0 (Windows NT 10.0; Win64; x64) AppleWebKit/537.36 (KHTML, like Gecko) Chrome/94.0.4606.71 Safari/537.36" etag="uaR6F1QOTftfGNunE968" version="15.4.1" type="github">
  <diagram name="Page-1" id="10a91c8b-09ff-31b1-d368-03940ed4cc9e">
    <mxGraphModel dx="1422" dy="754" grid="1" gridSize="10" guides="1" tooltips="1" connect="1" arrows="1" fold="1" page="1" pageScale="1" pageWidth="1100" pageHeight="850" background="none" math="0" shadow="0">
      <root>
        <mxCell id="0" />
        <mxCell id="1" parent="0" />
        <mxCell id="ErytSRjThVYuVtmWc2yD-547" style="edgeStyle=none;rounded=0;orthogonalLoop=1;jettySize=auto;html=1;" edge="1" parent="1" source="ErytSRjThVYuVtmWc2yD-14" target="ErytSRjThVYuVtmWc2yD-363">
          <mxGeometry relative="1" as="geometry" />
        </mxCell>
        <mxCell id="ErytSRjThVYuVtmWc2yD-14" value="" style="shape=table;startSize=0;container=1;collapsible=0;childLayout=tableLayout;" vertex="1" parent="1">
          <mxGeometry x="420" y="30" width="200" height="229" as="geometry" />
        </mxCell>
        <mxCell id="ErytSRjThVYuVtmWc2yD-15" value="" style="shape=partialRectangle;collapsible=0;dropTarget=0;pointerEvents=0;fillColor=none;top=0;left=0;bottom=0;right=0;points=[[0,0.5],[1,0.5]];portConstraint=eastwest;" vertex="1" parent="ErytSRjThVYuVtmWc2yD-14">
          <mxGeometry width="200" height="29" as="geometry" />
        </mxCell>
        <mxCell id="ErytSRjThVYuVtmWc2yD-16" value="" style="shape=partialRectangle;html=1;whiteSpace=wrap;connectable=0;overflow=hidden;fillColor=none;top=0;left=0;bottom=0;right=0;pointerEvents=1;" vertex="1" parent="ErytSRjThVYuVtmWc2yD-15">
          <mxGeometry width="29" height="29" as="geometry">
            <mxRectangle width="29" height="29" as="alternateBounds" />
          </mxGeometry>
        </mxCell>
        <mxCell id="ErytSRjThVYuVtmWc2yD-17" value="" style="shape=partialRectangle;html=1;whiteSpace=wrap;connectable=0;overflow=hidden;fillColor=none;top=0;left=0;bottom=0;right=0;pointerEvents=1;" vertex="1" parent="ErytSRjThVYuVtmWc2yD-15">
          <mxGeometry x="29" width="28" height="29" as="geometry">
            <mxRectangle width="28" height="29" as="alternateBounds" />
          </mxGeometry>
        </mxCell>
        <mxCell id="ErytSRjThVYuVtmWc2yD-18" value="" style="shape=partialRectangle;html=1;whiteSpace=wrap;connectable=0;overflow=hidden;fillColor=none;top=0;left=0;bottom=0;right=0;pointerEvents=1;" vertex="1" parent="ErytSRjThVYuVtmWc2yD-15">
          <mxGeometry x="57" width="29" height="29" as="geometry">
            <mxRectangle width="29" height="29" as="alternateBounds" />
          </mxGeometry>
        </mxCell>
        <mxCell id="ErytSRjThVYuVtmWc2yD-19" value="" style="shape=partialRectangle;html=1;whiteSpace=wrap;connectable=0;overflow=hidden;fillColor=none;top=0;left=0;bottom=0;right=0;pointerEvents=1;" vertex="1" parent="ErytSRjThVYuVtmWc2yD-15">
          <mxGeometry x="86" width="28" height="29" as="geometry">
            <mxRectangle width="28" height="29" as="alternateBounds" />
          </mxGeometry>
        </mxCell>
        <mxCell id="ErytSRjThVYuVtmWc2yD-20" value="" style="shape=partialRectangle;html=1;whiteSpace=wrap;connectable=0;overflow=hidden;fillColor=none;top=0;left=0;bottom=0;right=0;pointerEvents=1;" vertex="1" parent="ErytSRjThVYuVtmWc2yD-15">
          <mxGeometry x="114" width="29" height="29" as="geometry">
            <mxRectangle width="29" height="29" as="alternateBounds" />
          </mxGeometry>
        </mxCell>
        <mxCell id="ErytSRjThVYuVtmWc2yD-21" value="" style="shape=partialRectangle;html=1;whiteSpace=wrap;connectable=0;overflow=hidden;fillColor=none;top=0;left=0;bottom=0;right=0;pointerEvents=1;" vertex="1" parent="ErytSRjThVYuVtmWc2yD-15">
          <mxGeometry x="143" width="28" height="29" as="geometry">
            <mxRectangle width="28" height="29" as="alternateBounds" />
          </mxGeometry>
        </mxCell>
        <mxCell id="ErytSRjThVYuVtmWc2yD-22" value="" style="shape=partialRectangle;html=1;whiteSpace=wrap;connectable=0;overflow=hidden;fillColor=none;top=0;left=0;bottom=0;right=0;pointerEvents=1;" vertex="1" parent="ErytSRjThVYuVtmWc2yD-15">
          <mxGeometry x="171" width="29" height="29" as="geometry">
            <mxRectangle width="29" height="29" as="alternateBounds" />
          </mxGeometry>
        </mxCell>
        <mxCell id="ErytSRjThVYuVtmWc2yD-23" value="" style="shape=partialRectangle;collapsible=0;dropTarget=0;pointerEvents=0;fillColor=none;top=0;left=0;bottom=0;right=0;points=[[0,0.5],[1,0.5]];portConstraint=eastwest;" vertex="1" parent="ErytSRjThVYuVtmWc2yD-14">
          <mxGeometry y="29" width="200" height="28" as="geometry" />
        </mxCell>
        <mxCell id="ErytSRjThVYuVtmWc2yD-24" value="" style="shape=partialRectangle;html=1;whiteSpace=wrap;connectable=0;overflow=hidden;fillColor=none;top=0;left=0;bottom=0;right=0;pointerEvents=1;" vertex="1" parent="ErytSRjThVYuVtmWc2yD-23">
          <mxGeometry width="29" height="28" as="geometry">
            <mxRectangle width="29" height="28" as="alternateBounds" />
          </mxGeometry>
        </mxCell>
        <mxCell id="ErytSRjThVYuVtmWc2yD-25" value="" style="shape=partialRectangle;html=1;whiteSpace=wrap;connectable=0;overflow=hidden;fillColor=none;top=0;left=0;bottom=0;right=0;pointerEvents=1;" vertex="1" parent="ErytSRjThVYuVtmWc2yD-23">
          <mxGeometry x="29" width="28" height="28" as="geometry">
            <mxRectangle width="28" height="28" as="alternateBounds" />
          </mxGeometry>
        </mxCell>
        <mxCell id="ErytSRjThVYuVtmWc2yD-26" value="" style="shape=partialRectangle;html=1;whiteSpace=wrap;connectable=0;overflow=hidden;fillColor=none;top=0;left=0;bottom=0;right=0;pointerEvents=1;" vertex="1" parent="ErytSRjThVYuVtmWc2yD-23">
          <mxGeometry x="57" width="29" height="28" as="geometry">
            <mxRectangle width="29" height="28" as="alternateBounds" />
          </mxGeometry>
        </mxCell>
        <mxCell id="ErytSRjThVYuVtmWc2yD-27" value="2" style="shape=partialRectangle;html=1;whiteSpace=wrap;connectable=0;overflow=hidden;fillColor=none;top=0;left=0;bottom=0;right=0;pointerEvents=1;" vertex="1" parent="ErytSRjThVYuVtmWc2yD-23">
          <mxGeometry x="86" width="28" height="28" as="geometry">
            <mxRectangle width="28" height="28" as="alternateBounds" />
          </mxGeometry>
        </mxCell>
        <mxCell id="ErytSRjThVYuVtmWc2yD-28" value="" style="shape=partialRectangle;html=1;whiteSpace=wrap;connectable=0;overflow=hidden;fillColor=none;top=0;left=0;bottom=0;right=0;pointerEvents=1;" vertex="1" parent="ErytSRjThVYuVtmWc2yD-23">
          <mxGeometry x="114" width="29" height="28" as="geometry">
            <mxRectangle width="29" height="28" as="alternateBounds" />
          </mxGeometry>
        </mxCell>
        <mxCell id="ErytSRjThVYuVtmWc2yD-29" value="" style="shape=partialRectangle;html=1;whiteSpace=wrap;connectable=0;overflow=hidden;fillColor=none;top=0;left=0;bottom=0;right=0;pointerEvents=1;" vertex="1" parent="ErytSRjThVYuVtmWc2yD-23">
          <mxGeometry x="143" width="28" height="28" as="geometry">
            <mxRectangle width="28" height="28" as="alternateBounds" />
          </mxGeometry>
        </mxCell>
        <mxCell id="ErytSRjThVYuVtmWc2yD-30" value="" style="shape=partialRectangle;html=1;whiteSpace=wrap;connectable=0;overflow=hidden;fillColor=none;top=0;left=0;bottom=0;right=0;pointerEvents=1;" vertex="1" parent="ErytSRjThVYuVtmWc2yD-23">
          <mxGeometry x="171" width="29" height="28" as="geometry">
            <mxRectangle width="29" height="28" as="alternateBounds" />
          </mxGeometry>
        </mxCell>
        <mxCell id="ErytSRjThVYuVtmWc2yD-31" value="" style="shape=partialRectangle;collapsible=0;dropTarget=0;pointerEvents=0;fillColor=none;top=0;left=0;bottom=0;right=0;points=[[0,0.5],[1,0.5]];portConstraint=eastwest;" vertex="1" parent="ErytSRjThVYuVtmWc2yD-14">
          <mxGeometry y="57" width="200" height="29" as="geometry" />
        </mxCell>
        <mxCell id="ErytSRjThVYuVtmWc2yD-32" value="" style="shape=partialRectangle;html=1;whiteSpace=wrap;connectable=0;overflow=hidden;fillColor=none;top=0;left=0;bottom=0;right=0;pointerEvents=1;" vertex="1" parent="ErytSRjThVYuVtmWc2yD-31">
          <mxGeometry width="29" height="29" as="geometry">
            <mxRectangle width="29" height="29" as="alternateBounds" />
          </mxGeometry>
        </mxCell>
        <mxCell id="ErytSRjThVYuVtmWc2yD-33" value="" style="shape=partialRectangle;html=1;whiteSpace=wrap;connectable=0;overflow=hidden;fillColor=none;top=0;left=0;bottom=0;right=0;pointerEvents=1;" vertex="1" parent="ErytSRjThVYuVtmWc2yD-31">
          <mxGeometry x="29" width="28" height="29" as="geometry">
            <mxRectangle width="28" height="29" as="alternateBounds" />
          </mxGeometry>
        </mxCell>
        <mxCell id="ErytSRjThVYuVtmWc2yD-34" value="2" style="shape=partialRectangle;html=1;whiteSpace=wrap;connectable=0;overflow=hidden;fillColor=none;top=0;left=0;bottom=0;right=0;pointerEvents=1;" vertex="1" parent="ErytSRjThVYuVtmWc2yD-31">
          <mxGeometry x="57" width="29" height="29" as="geometry">
            <mxRectangle width="29" height="29" as="alternateBounds" />
          </mxGeometry>
        </mxCell>
        <mxCell id="ErytSRjThVYuVtmWc2yD-35" value="1" style="shape=partialRectangle;html=1;whiteSpace=wrap;connectable=0;overflow=hidden;fillColor=none;top=0;left=0;bottom=0;right=0;pointerEvents=1;" vertex="1" parent="ErytSRjThVYuVtmWc2yD-31">
          <mxGeometry x="86" width="28" height="29" as="geometry">
            <mxRectangle width="28" height="29" as="alternateBounds" />
          </mxGeometry>
        </mxCell>
        <mxCell id="ErytSRjThVYuVtmWc2yD-36" value="2" style="shape=partialRectangle;html=1;whiteSpace=wrap;connectable=0;overflow=hidden;fillColor=none;top=0;left=0;bottom=0;right=0;pointerEvents=1;" vertex="1" parent="ErytSRjThVYuVtmWc2yD-31">
          <mxGeometry x="114" width="29" height="29" as="geometry">
            <mxRectangle width="29" height="29" as="alternateBounds" />
          </mxGeometry>
        </mxCell>
        <mxCell id="ErytSRjThVYuVtmWc2yD-37" value="" style="shape=partialRectangle;html=1;whiteSpace=wrap;connectable=0;overflow=hidden;fillColor=none;top=0;left=0;bottom=0;right=0;pointerEvents=1;" vertex="1" parent="ErytSRjThVYuVtmWc2yD-31">
          <mxGeometry x="143" width="28" height="29" as="geometry">
            <mxRectangle width="28" height="29" as="alternateBounds" />
          </mxGeometry>
        </mxCell>
        <mxCell id="ErytSRjThVYuVtmWc2yD-38" value="" style="shape=partialRectangle;html=1;whiteSpace=wrap;connectable=0;overflow=hidden;fillColor=none;top=0;left=0;bottom=0;right=0;pointerEvents=1;" vertex="1" parent="ErytSRjThVYuVtmWc2yD-31">
          <mxGeometry x="171" width="29" height="29" as="geometry">
            <mxRectangle width="29" height="29" as="alternateBounds" />
          </mxGeometry>
        </mxCell>
        <mxCell id="ErytSRjThVYuVtmWc2yD-39" value="" style="shape=partialRectangle;collapsible=0;dropTarget=0;pointerEvents=0;fillColor=none;top=0;left=0;bottom=0;right=0;points=[[0,0.5],[1,0.5]];portConstraint=eastwest;" vertex="1" parent="ErytSRjThVYuVtmWc2yD-14">
          <mxGeometry y="86" width="200" height="28" as="geometry" />
        </mxCell>
        <mxCell id="ErytSRjThVYuVtmWc2yD-40" value="" style="shape=partialRectangle;html=1;whiteSpace=wrap;connectable=0;overflow=hidden;fillColor=none;top=0;left=0;bottom=0;right=0;pointerEvents=1;" vertex="1" parent="ErytSRjThVYuVtmWc2yD-39">
          <mxGeometry width="29" height="28" as="geometry">
            <mxRectangle width="29" height="28" as="alternateBounds" />
          </mxGeometry>
        </mxCell>
        <mxCell id="ErytSRjThVYuVtmWc2yD-41" value="2" style="shape=partialRectangle;html=1;whiteSpace=wrap;connectable=0;overflow=hidden;fillColor=none;top=0;left=0;bottom=0;right=0;pointerEvents=1;" vertex="1" parent="ErytSRjThVYuVtmWc2yD-39">
          <mxGeometry x="29" width="28" height="28" as="geometry">
            <mxRectangle width="28" height="28" as="alternateBounds" />
          </mxGeometry>
        </mxCell>
        <mxCell id="ErytSRjThVYuVtmWc2yD-42" value="" style="shape=partialRectangle;html=1;whiteSpace=wrap;connectable=0;overflow=hidden;fillColor=none;top=0;left=0;bottom=0;right=0;pointerEvents=1;" vertex="1" parent="ErytSRjThVYuVtmWc2yD-39">
          <mxGeometry x="57" width="29" height="28" as="geometry">
            <mxRectangle width="29" height="28" as="alternateBounds" />
          </mxGeometry>
        </mxCell>
        <mxCell id="ErytSRjThVYuVtmWc2yD-43" value="1" style="shape=partialRectangle;html=1;whiteSpace=wrap;connectable=0;overflow=hidden;fillColor=none;top=0;left=0;bottom=0;right=0;pointerEvents=1;" vertex="1" parent="ErytSRjThVYuVtmWc2yD-39">
          <mxGeometry x="86" width="28" height="28" as="geometry">
            <mxRectangle width="28" height="28" as="alternateBounds" />
          </mxGeometry>
        </mxCell>
        <mxCell id="ErytSRjThVYuVtmWc2yD-44" value="1" style="shape=partialRectangle;html=1;whiteSpace=wrap;connectable=0;overflow=hidden;fillColor=none;top=0;left=0;bottom=0;right=0;pointerEvents=1;" vertex="1" parent="ErytSRjThVYuVtmWc2yD-39">
          <mxGeometry x="114" width="29" height="28" as="geometry">
            <mxRectangle width="29" height="28" as="alternateBounds" />
          </mxGeometry>
        </mxCell>
        <mxCell id="ErytSRjThVYuVtmWc2yD-45" value="" style="shape=partialRectangle;html=1;whiteSpace=wrap;connectable=0;overflow=hidden;fillColor=none;top=0;left=0;bottom=0;right=0;pointerEvents=1;" vertex="1" parent="ErytSRjThVYuVtmWc2yD-39">
          <mxGeometry x="143" width="28" height="28" as="geometry">
            <mxRectangle width="28" height="28" as="alternateBounds" />
          </mxGeometry>
        </mxCell>
        <mxCell id="ErytSRjThVYuVtmWc2yD-46" value="" style="shape=partialRectangle;html=1;whiteSpace=wrap;connectable=0;overflow=hidden;fillColor=none;top=0;left=0;bottom=0;right=0;pointerEvents=1;" vertex="1" parent="ErytSRjThVYuVtmWc2yD-39">
          <mxGeometry x="171" width="29" height="28" as="geometry">
            <mxRectangle width="29" height="28" as="alternateBounds" />
          </mxGeometry>
        </mxCell>
        <mxCell id="ErytSRjThVYuVtmWc2yD-47" value="" style="shape=partialRectangle;collapsible=0;dropTarget=0;pointerEvents=0;fillColor=none;top=0;left=0;bottom=0;right=0;points=[[0,0.5],[1,0.5]];portConstraint=eastwest;" vertex="1" parent="ErytSRjThVYuVtmWc2yD-14">
          <mxGeometry y="114" width="200" height="29" as="geometry" />
        </mxCell>
        <mxCell id="ErytSRjThVYuVtmWc2yD-48" value="" style="shape=partialRectangle;html=1;whiteSpace=wrap;connectable=0;overflow=hidden;fillColor=none;top=0;left=0;bottom=0;right=0;pointerEvents=1;" vertex="1" parent="ErytSRjThVYuVtmWc2yD-47">
          <mxGeometry width="29" height="29" as="geometry">
            <mxRectangle width="29" height="29" as="alternateBounds" />
          </mxGeometry>
        </mxCell>
        <mxCell id="ErytSRjThVYuVtmWc2yD-49" value="" style="shape=partialRectangle;html=1;whiteSpace=wrap;connectable=0;overflow=hidden;fillColor=none;top=0;left=0;bottom=0;right=0;pointerEvents=1;" vertex="1" parent="ErytSRjThVYuVtmWc2yD-47">
          <mxGeometry x="29" width="28" height="29" as="geometry">
            <mxRectangle width="28" height="29" as="alternateBounds" />
          </mxGeometry>
        </mxCell>
        <mxCell id="ErytSRjThVYuVtmWc2yD-50" value="" style="shape=partialRectangle;html=1;whiteSpace=wrap;connectable=0;overflow=hidden;fillColor=none;top=0;left=0;bottom=0;right=0;pointerEvents=1;" vertex="1" parent="ErytSRjThVYuVtmWc2yD-47">
          <mxGeometry x="57" width="29" height="29" as="geometry">
            <mxRectangle width="29" height="29" as="alternateBounds" />
          </mxGeometry>
        </mxCell>
        <mxCell id="ErytSRjThVYuVtmWc2yD-51" value="1" style="shape=partialRectangle;html=1;whiteSpace=wrap;connectable=0;overflow=hidden;fillColor=none;top=0;left=0;bottom=0;right=0;pointerEvents=1;" vertex="1" parent="ErytSRjThVYuVtmWc2yD-47">
          <mxGeometry x="86" width="28" height="29" as="geometry">
            <mxRectangle width="28" height="29" as="alternateBounds" />
          </mxGeometry>
        </mxCell>
        <mxCell id="ErytSRjThVYuVtmWc2yD-52" value="" style="shape=partialRectangle;html=1;whiteSpace=wrap;connectable=0;overflow=hidden;fillColor=none;top=0;left=0;bottom=0;right=0;pointerEvents=1;" vertex="1" parent="ErytSRjThVYuVtmWc2yD-47">
          <mxGeometry x="114" width="29" height="29" as="geometry">
            <mxRectangle width="29" height="29" as="alternateBounds" />
          </mxGeometry>
        </mxCell>
        <mxCell id="ErytSRjThVYuVtmWc2yD-53" value="1" style="shape=partialRectangle;html=1;whiteSpace=wrap;connectable=0;overflow=hidden;fillColor=none;top=0;left=0;bottom=0;right=0;pointerEvents=1;" vertex="1" parent="ErytSRjThVYuVtmWc2yD-47">
          <mxGeometry x="143" width="28" height="29" as="geometry">
            <mxRectangle width="28" height="29" as="alternateBounds" />
          </mxGeometry>
        </mxCell>
        <mxCell id="ErytSRjThVYuVtmWc2yD-54" value="" style="shape=partialRectangle;html=1;whiteSpace=wrap;connectable=0;overflow=hidden;fillColor=none;top=0;left=0;bottom=0;right=0;pointerEvents=1;" vertex="1" parent="ErytSRjThVYuVtmWc2yD-47">
          <mxGeometry x="171" width="29" height="29" as="geometry">
            <mxRectangle width="29" height="29" as="alternateBounds" />
          </mxGeometry>
        </mxCell>
        <mxCell id="ErytSRjThVYuVtmWc2yD-55" value="" style="shape=partialRectangle;collapsible=0;dropTarget=0;pointerEvents=0;fillColor=none;top=0;left=0;bottom=0;right=0;points=[[0,0.5],[1,0.5]];portConstraint=eastwest;" vertex="1" parent="ErytSRjThVYuVtmWc2yD-14">
          <mxGeometry y="143" width="200" height="28" as="geometry" />
        </mxCell>
        <mxCell id="ErytSRjThVYuVtmWc2yD-56" value="" style="shape=partialRectangle;html=1;whiteSpace=wrap;connectable=0;overflow=hidden;fillColor=none;top=0;left=0;bottom=0;right=0;pointerEvents=1;" vertex="1" parent="ErytSRjThVYuVtmWc2yD-55">
          <mxGeometry width="29" height="28" as="geometry">
            <mxRectangle width="29" height="28" as="alternateBounds" />
          </mxGeometry>
        </mxCell>
        <mxCell id="ErytSRjThVYuVtmWc2yD-57" value="" style="shape=partialRectangle;html=1;whiteSpace=wrap;connectable=0;overflow=hidden;fillColor=none;top=0;left=0;bottom=0;right=0;pointerEvents=1;" vertex="1" parent="ErytSRjThVYuVtmWc2yD-55">
          <mxGeometry x="29" width="28" height="28" as="geometry">
            <mxRectangle width="28" height="28" as="alternateBounds" />
          </mxGeometry>
        </mxCell>
        <mxCell id="ErytSRjThVYuVtmWc2yD-58" value="" style="shape=partialRectangle;html=1;whiteSpace=wrap;connectable=0;overflow=hidden;fillColor=none;top=0;left=0;bottom=0;right=0;pointerEvents=1;" vertex="1" parent="ErytSRjThVYuVtmWc2yD-55">
          <mxGeometry x="57" width="29" height="28" as="geometry">
            <mxRectangle width="29" height="28" as="alternateBounds" />
          </mxGeometry>
        </mxCell>
        <mxCell id="ErytSRjThVYuVtmWc2yD-59" value="1" style="shape=partialRectangle;html=1;whiteSpace=wrap;connectable=0;overflow=hidden;fillColor=none;top=0;left=0;bottom=0;right=0;pointerEvents=1;" vertex="1" parent="ErytSRjThVYuVtmWc2yD-55">
          <mxGeometry x="86" width="28" height="28" as="geometry">
            <mxRectangle width="28" height="28" as="alternateBounds" />
          </mxGeometry>
        </mxCell>
        <mxCell id="ErytSRjThVYuVtmWc2yD-60" value="" style="shape=partialRectangle;html=1;whiteSpace=wrap;connectable=0;overflow=hidden;fillColor=none;top=0;left=0;bottom=0;right=0;pointerEvents=1;" vertex="1" parent="ErytSRjThVYuVtmWc2yD-55">
          <mxGeometry x="114" width="29" height="28" as="geometry">
            <mxRectangle width="29" height="28" as="alternateBounds" />
          </mxGeometry>
        </mxCell>
        <mxCell id="ErytSRjThVYuVtmWc2yD-61" value="" style="shape=partialRectangle;html=1;whiteSpace=wrap;connectable=0;overflow=hidden;fillColor=none;top=0;left=0;bottom=0;right=0;pointerEvents=1;" vertex="1" parent="ErytSRjThVYuVtmWc2yD-55">
          <mxGeometry x="143" width="28" height="28" as="geometry">
            <mxRectangle width="28" height="28" as="alternateBounds" />
          </mxGeometry>
        </mxCell>
        <mxCell id="ErytSRjThVYuVtmWc2yD-62" value="" style="shape=partialRectangle;html=1;whiteSpace=wrap;connectable=0;overflow=hidden;fillColor=none;top=0;left=0;bottom=0;right=0;pointerEvents=1;" vertex="1" parent="ErytSRjThVYuVtmWc2yD-55">
          <mxGeometry x="171" width="29" height="28" as="geometry">
            <mxRectangle width="29" height="28" as="alternateBounds" />
          </mxGeometry>
        </mxCell>
        <mxCell id="ErytSRjThVYuVtmWc2yD-536" value="" style="shape=partialRectangle;collapsible=0;dropTarget=0;pointerEvents=0;fillColor=none;top=0;left=0;bottom=0;right=0;points=[[0,0.5],[1,0.5]];portConstraint=eastwest;" vertex="1" parent="ErytSRjThVYuVtmWc2yD-14">
          <mxGeometry y="171" width="200" height="29" as="geometry" />
        </mxCell>
        <mxCell id="ErytSRjThVYuVtmWc2yD-537" value="" style="shape=partialRectangle;html=1;whiteSpace=wrap;connectable=0;overflow=hidden;fillColor=none;top=0;left=0;bottom=0;right=0;pointerEvents=1;" vertex="1" parent="ErytSRjThVYuVtmWc2yD-536">
          <mxGeometry width="29" height="29" as="geometry">
            <mxRectangle width="29" height="29" as="alternateBounds" />
          </mxGeometry>
        </mxCell>
        <mxCell id="ErytSRjThVYuVtmWc2yD-538" value="" style="shape=partialRectangle;html=1;whiteSpace=wrap;connectable=0;overflow=hidden;fillColor=none;top=0;left=0;bottom=0;right=0;pointerEvents=1;" vertex="1" parent="ErytSRjThVYuVtmWc2yD-536">
          <mxGeometry x="29" width="28" height="29" as="geometry">
            <mxRectangle width="28" height="29" as="alternateBounds" />
          </mxGeometry>
        </mxCell>
        <mxCell id="ErytSRjThVYuVtmWc2yD-539" value="" style="shape=partialRectangle;html=1;whiteSpace=wrap;connectable=0;overflow=hidden;fillColor=none;top=0;left=0;bottom=0;right=0;pointerEvents=1;" vertex="1" parent="ErytSRjThVYuVtmWc2yD-536">
          <mxGeometry x="57" width="29" height="29" as="geometry">
            <mxRectangle width="29" height="29" as="alternateBounds" />
          </mxGeometry>
        </mxCell>
        <mxCell id="ErytSRjThVYuVtmWc2yD-540" value="2" style="shape=partialRectangle;html=1;whiteSpace=wrap;connectable=0;overflow=hidden;fillColor=none;top=0;left=0;bottom=0;right=0;pointerEvents=1;" vertex="1" parent="ErytSRjThVYuVtmWc2yD-536">
          <mxGeometry x="86" width="28" height="29" as="geometry">
            <mxRectangle width="28" height="29" as="alternateBounds" />
          </mxGeometry>
        </mxCell>
        <mxCell id="ErytSRjThVYuVtmWc2yD-541" value="" style="shape=partialRectangle;html=1;whiteSpace=wrap;connectable=0;overflow=hidden;fillColor=none;top=0;left=0;bottom=0;right=0;pointerEvents=1;" vertex="1" parent="ErytSRjThVYuVtmWc2yD-536">
          <mxGeometry x="114" width="29" height="29" as="geometry">
            <mxRectangle width="29" height="29" as="alternateBounds" />
          </mxGeometry>
        </mxCell>
        <mxCell id="ErytSRjThVYuVtmWc2yD-542" value="" style="shape=partialRectangle;html=1;whiteSpace=wrap;connectable=0;overflow=hidden;fillColor=none;top=0;left=0;bottom=0;right=0;pointerEvents=1;" vertex="1" parent="ErytSRjThVYuVtmWc2yD-536">
          <mxGeometry x="143" width="28" height="29" as="geometry">
            <mxRectangle width="28" height="29" as="alternateBounds" />
          </mxGeometry>
        </mxCell>
        <mxCell id="ErytSRjThVYuVtmWc2yD-543" value="" style="shape=partialRectangle;html=1;whiteSpace=wrap;connectable=0;overflow=hidden;fillColor=none;top=0;left=0;bottom=0;right=0;pointerEvents=1;" vertex="1" parent="ErytSRjThVYuVtmWc2yD-536">
          <mxGeometry x="171" width="29" height="29" as="geometry">
            <mxRectangle width="29" height="29" as="alternateBounds" />
          </mxGeometry>
        </mxCell>
        <mxCell id="ErytSRjThVYuVtmWc2yD-63" value="" style="shape=partialRectangle;collapsible=0;dropTarget=0;pointerEvents=0;fillColor=none;top=0;left=0;bottom=0;right=0;points=[[0,0.5],[1,0.5]];portConstraint=eastwest;" vertex="1" parent="ErytSRjThVYuVtmWc2yD-14">
          <mxGeometry y="200" width="200" height="29" as="geometry" />
        </mxCell>
        <mxCell id="ErytSRjThVYuVtmWc2yD-64" value="" style="shape=partialRectangle;html=1;whiteSpace=wrap;connectable=0;overflow=hidden;fillColor=none;top=0;left=0;bottom=0;right=0;pointerEvents=1;" vertex="1" parent="ErytSRjThVYuVtmWc2yD-63">
          <mxGeometry width="29" height="29" as="geometry">
            <mxRectangle width="29" height="29" as="alternateBounds" />
          </mxGeometry>
        </mxCell>
        <mxCell id="ErytSRjThVYuVtmWc2yD-65" value="" style="shape=partialRectangle;html=1;whiteSpace=wrap;connectable=0;overflow=hidden;fillColor=none;top=0;left=0;bottom=0;right=0;pointerEvents=1;" vertex="1" parent="ErytSRjThVYuVtmWc2yD-63">
          <mxGeometry x="29" width="28" height="29" as="geometry">
            <mxRectangle width="28" height="29" as="alternateBounds" />
          </mxGeometry>
        </mxCell>
        <mxCell id="ErytSRjThVYuVtmWc2yD-66" value="" style="shape=partialRectangle;html=1;whiteSpace=wrap;connectable=0;overflow=hidden;fillColor=none;top=0;left=0;bottom=0;right=0;pointerEvents=1;" vertex="1" parent="ErytSRjThVYuVtmWc2yD-63">
          <mxGeometry x="57" width="29" height="29" as="geometry">
            <mxRectangle width="29" height="29" as="alternateBounds" />
          </mxGeometry>
        </mxCell>
        <mxCell id="ErytSRjThVYuVtmWc2yD-67" value="2" style="shape=partialRectangle;html=1;whiteSpace=wrap;connectable=0;overflow=hidden;fillColor=none;top=0;left=0;bottom=0;right=0;pointerEvents=1;" vertex="1" parent="ErytSRjThVYuVtmWc2yD-63">
          <mxGeometry x="86" width="28" height="29" as="geometry">
            <mxRectangle width="28" height="29" as="alternateBounds" />
          </mxGeometry>
        </mxCell>
        <mxCell id="ErytSRjThVYuVtmWc2yD-68" value="" style="shape=partialRectangle;html=1;whiteSpace=wrap;connectable=0;overflow=hidden;fillColor=none;top=0;left=0;bottom=0;right=0;pointerEvents=1;" vertex="1" parent="ErytSRjThVYuVtmWc2yD-63">
          <mxGeometry x="114" width="29" height="29" as="geometry">
            <mxRectangle width="29" height="29" as="alternateBounds" />
          </mxGeometry>
        </mxCell>
        <mxCell id="ErytSRjThVYuVtmWc2yD-69" value="" style="shape=partialRectangle;html=1;whiteSpace=wrap;connectable=0;overflow=hidden;fillColor=none;top=0;left=0;bottom=0;right=0;pointerEvents=1;" vertex="1" parent="ErytSRjThVYuVtmWc2yD-63">
          <mxGeometry x="143" width="28" height="29" as="geometry">
            <mxRectangle width="28" height="29" as="alternateBounds" />
          </mxGeometry>
        </mxCell>
        <mxCell id="ErytSRjThVYuVtmWc2yD-70" value="" style="shape=partialRectangle;html=1;whiteSpace=wrap;connectable=0;overflow=hidden;fillColor=none;top=0;left=0;bottom=0;right=0;pointerEvents=1;" vertex="1" parent="ErytSRjThVYuVtmWc2yD-63">
          <mxGeometry x="171" width="29" height="29" as="geometry">
            <mxRectangle width="29" height="29" as="alternateBounds" />
          </mxGeometry>
        </mxCell>
        <mxCell id="ErytSRjThVYuVtmWc2yD-546" style="edgeStyle=none;rounded=0;orthogonalLoop=1;jettySize=auto;html=1;" edge="1" parent="1" source="ErytSRjThVYuVtmWc2yD-71" target="ErytSRjThVYuVtmWc2yD-305">
          <mxGeometry relative="1" as="geometry" />
        </mxCell>
        <mxCell id="ErytSRjThVYuVtmWc2yD-548" style="edgeStyle=none;rounded=0;orthogonalLoop=1;jettySize=auto;html=1;" edge="1" parent="1" source="ErytSRjThVYuVtmWc2yD-71" target="ErytSRjThVYuVtmWc2yD-421">
          <mxGeometry relative="1" as="geometry" />
        </mxCell>
        <mxCell id="ErytSRjThVYuVtmWc2yD-549" style="edgeStyle=none;rounded=0;orthogonalLoop=1;jettySize=auto;html=1;" edge="1" parent="1" source="ErytSRjThVYuVtmWc2yD-71" target="ErytSRjThVYuVtmWc2yD-479">
          <mxGeometry relative="1" as="geometry" />
        </mxCell>
        <mxCell id="ErytSRjThVYuVtmWc2yD-71" value="Nächster Spieler: 2 Gewinner: X&amp;nbsp;" style="rounded=0;whiteSpace=wrap;html=1;" vertex="1" parent="1">
          <mxGeometry x="420" y="230" width="200" height="30" as="geometry" />
        </mxCell>
        <mxCell id="ErytSRjThVYuVtmWc2yD-246" value="" style="shape=table;startSize=0;container=1;collapsible=0;childLayout=tableLayout;" vertex="1" parent="1">
          <mxGeometry x="40" y="310" width="200" height="200" as="geometry" />
        </mxCell>
        <mxCell id="ErytSRjThVYuVtmWc2yD-247" value="" style="shape=partialRectangle;collapsible=0;dropTarget=0;pointerEvents=0;fillColor=none;top=0;left=0;bottom=0;right=0;points=[[0,0.5],[1,0.5]];portConstraint=eastwest;" vertex="1" parent="ErytSRjThVYuVtmWc2yD-246">
          <mxGeometry width="200" height="29" as="geometry" />
        </mxCell>
        <mxCell id="ErytSRjThVYuVtmWc2yD-248" value="" style="shape=partialRectangle;html=1;whiteSpace=wrap;connectable=0;overflow=hidden;fillColor=none;top=0;left=0;bottom=0;right=0;pointerEvents=1;" vertex="1" parent="ErytSRjThVYuVtmWc2yD-247">
          <mxGeometry width="29" height="29" as="geometry">
            <mxRectangle width="29" height="29" as="alternateBounds" />
          </mxGeometry>
        </mxCell>
        <mxCell id="ErytSRjThVYuVtmWc2yD-249" value="" style="shape=partialRectangle;html=1;whiteSpace=wrap;connectable=0;overflow=hidden;fillColor=none;top=0;left=0;bottom=0;right=0;pointerEvents=1;" vertex="1" parent="ErytSRjThVYuVtmWc2yD-247">
          <mxGeometry x="29" width="28" height="29" as="geometry">
            <mxRectangle width="28" height="29" as="alternateBounds" />
          </mxGeometry>
        </mxCell>
        <mxCell id="ErytSRjThVYuVtmWc2yD-250" value="" style="shape=partialRectangle;html=1;whiteSpace=wrap;connectable=0;overflow=hidden;fillColor=none;top=0;left=0;bottom=0;right=0;pointerEvents=1;" vertex="1" parent="ErytSRjThVYuVtmWc2yD-247">
          <mxGeometry x="57" width="29" height="29" as="geometry">
            <mxRectangle width="29" height="29" as="alternateBounds" />
          </mxGeometry>
        </mxCell>
        <mxCell id="ErytSRjThVYuVtmWc2yD-251" value="" style="shape=partialRectangle;html=1;whiteSpace=wrap;connectable=0;overflow=hidden;fillColor=none;top=0;left=0;bottom=0;right=0;pointerEvents=1;" vertex="1" parent="ErytSRjThVYuVtmWc2yD-247">
          <mxGeometry x="86" width="28" height="29" as="geometry">
            <mxRectangle width="28" height="29" as="alternateBounds" />
          </mxGeometry>
        </mxCell>
        <mxCell id="ErytSRjThVYuVtmWc2yD-252" value="" style="shape=partialRectangle;html=1;whiteSpace=wrap;connectable=0;overflow=hidden;fillColor=none;top=0;left=0;bottom=0;right=0;pointerEvents=1;" vertex="1" parent="ErytSRjThVYuVtmWc2yD-247">
          <mxGeometry x="114" width="29" height="29" as="geometry">
            <mxRectangle width="29" height="29" as="alternateBounds" />
          </mxGeometry>
        </mxCell>
        <mxCell id="ErytSRjThVYuVtmWc2yD-253" value="" style="shape=partialRectangle;html=1;whiteSpace=wrap;connectable=0;overflow=hidden;fillColor=none;top=0;left=0;bottom=0;right=0;pointerEvents=1;" vertex="1" parent="ErytSRjThVYuVtmWc2yD-247">
          <mxGeometry x="143" width="28" height="29" as="geometry">
            <mxRectangle width="28" height="29" as="alternateBounds" />
          </mxGeometry>
        </mxCell>
        <mxCell id="ErytSRjThVYuVtmWc2yD-254" value="" style="shape=partialRectangle;html=1;whiteSpace=wrap;connectable=0;overflow=hidden;fillColor=none;top=0;left=0;bottom=0;right=0;pointerEvents=1;" vertex="1" parent="ErytSRjThVYuVtmWc2yD-247">
          <mxGeometry x="171" width="29" height="29" as="geometry">
            <mxRectangle width="29" height="29" as="alternateBounds" />
          </mxGeometry>
        </mxCell>
        <mxCell id="ErytSRjThVYuVtmWc2yD-255" value="" style="shape=partialRectangle;collapsible=0;dropTarget=0;pointerEvents=0;fillColor=none;top=0;left=0;bottom=0;right=0;points=[[0,0.5],[1,0.5]];portConstraint=eastwest;" vertex="1" parent="ErytSRjThVYuVtmWc2yD-246">
          <mxGeometry y="29" width="200" height="28" as="geometry" />
        </mxCell>
        <mxCell id="ErytSRjThVYuVtmWc2yD-256" value="" style="shape=partialRectangle;html=1;whiteSpace=wrap;connectable=0;overflow=hidden;fillColor=none;top=0;left=0;bottom=0;right=0;pointerEvents=1;" vertex="1" parent="ErytSRjThVYuVtmWc2yD-255">
          <mxGeometry width="29" height="28" as="geometry">
            <mxRectangle width="29" height="28" as="alternateBounds" />
          </mxGeometry>
        </mxCell>
        <mxCell id="ErytSRjThVYuVtmWc2yD-257" value="" style="shape=partialRectangle;html=1;whiteSpace=wrap;connectable=0;overflow=hidden;fillColor=none;top=0;left=0;bottom=0;right=0;pointerEvents=1;" vertex="1" parent="ErytSRjThVYuVtmWc2yD-255">
          <mxGeometry x="29" width="28" height="28" as="geometry">
            <mxRectangle width="28" height="28" as="alternateBounds" />
          </mxGeometry>
        </mxCell>
        <mxCell id="ErytSRjThVYuVtmWc2yD-258" value="" style="shape=partialRectangle;html=1;whiteSpace=wrap;connectable=0;overflow=hidden;fillColor=none;top=0;left=0;bottom=0;right=0;pointerEvents=1;" vertex="1" parent="ErytSRjThVYuVtmWc2yD-255">
          <mxGeometry x="57" width="29" height="28" as="geometry">
            <mxRectangle width="29" height="28" as="alternateBounds" />
          </mxGeometry>
        </mxCell>
        <mxCell id="ErytSRjThVYuVtmWc2yD-259" value="2" style="shape=partialRectangle;html=1;whiteSpace=wrap;connectable=0;overflow=hidden;fillColor=none;top=0;left=0;bottom=0;right=0;pointerEvents=1;" vertex="1" parent="ErytSRjThVYuVtmWc2yD-255">
          <mxGeometry x="86" width="28" height="28" as="geometry">
            <mxRectangle width="28" height="28" as="alternateBounds" />
          </mxGeometry>
        </mxCell>
        <mxCell id="ErytSRjThVYuVtmWc2yD-260" value="" style="shape=partialRectangle;html=1;whiteSpace=wrap;connectable=0;overflow=hidden;fillColor=none;top=0;left=0;bottom=0;right=0;pointerEvents=1;" vertex="1" parent="ErytSRjThVYuVtmWc2yD-255">
          <mxGeometry x="114" width="29" height="28" as="geometry">
            <mxRectangle width="29" height="28" as="alternateBounds" />
          </mxGeometry>
        </mxCell>
        <mxCell id="ErytSRjThVYuVtmWc2yD-261" value="" style="shape=partialRectangle;html=1;whiteSpace=wrap;connectable=0;overflow=hidden;fillColor=none;top=0;left=0;bottom=0;right=0;pointerEvents=1;" vertex="1" parent="ErytSRjThVYuVtmWc2yD-255">
          <mxGeometry x="143" width="28" height="28" as="geometry">
            <mxRectangle width="28" height="28" as="alternateBounds" />
          </mxGeometry>
        </mxCell>
        <mxCell id="ErytSRjThVYuVtmWc2yD-262" value="" style="shape=partialRectangle;html=1;whiteSpace=wrap;connectable=0;overflow=hidden;fillColor=none;top=0;left=0;bottom=0;right=0;pointerEvents=1;" vertex="1" parent="ErytSRjThVYuVtmWc2yD-255">
          <mxGeometry x="171" width="29" height="28" as="geometry">
            <mxRectangle width="29" height="28" as="alternateBounds" />
          </mxGeometry>
        </mxCell>
        <mxCell id="ErytSRjThVYuVtmWc2yD-263" value="" style="shape=partialRectangle;collapsible=0;dropTarget=0;pointerEvents=0;fillColor=none;top=0;left=0;bottom=0;right=0;points=[[0,0.5],[1,0.5]];portConstraint=eastwest;" vertex="1" parent="ErytSRjThVYuVtmWc2yD-246">
          <mxGeometry y="57" width="200" height="29" as="geometry" />
        </mxCell>
        <mxCell id="ErytSRjThVYuVtmWc2yD-264" value="" style="shape=partialRectangle;html=1;whiteSpace=wrap;connectable=0;overflow=hidden;fillColor=none;top=0;left=0;bottom=0;right=0;pointerEvents=1;" vertex="1" parent="ErytSRjThVYuVtmWc2yD-263">
          <mxGeometry width="29" height="29" as="geometry">
            <mxRectangle width="29" height="29" as="alternateBounds" />
          </mxGeometry>
        </mxCell>
        <mxCell id="ErytSRjThVYuVtmWc2yD-265" value="" style="shape=partialRectangle;html=1;whiteSpace=wrap;connectable=0;overflow=hidden;fillColor=none;top=0;left=0;bottom=0;right=0;pointerEvents=1;" vertex="1" parent="ErytSRjThVYuVtmWc2yD-263">
          <mxGeometry x="29" width="28" height="29" as="geometry">
            <mxRectangle width="28" height="29" as="alternateBounds" />
          </mxGeometry>
        </mxCell>
        <mxCell id="ErytSRjThVYuVtmWc2yD-266" value="2" style="shape=partialRectangle;html=1;whiteSpace=wrap;connectable=0;overflow=hidden;fillColor=none;top=0;left=0;bottom=0;right=0;pointerEvents=1;" vertex="1" parent="ErytSRjThVYuVtmWc2yD-263">
          <mxGeometry x="57" width="29" height="29" as="geometry">
            <mxRectangle width="29" height="29" as="alternateBounds" />
          </mxGeometry>
        </mxCell>
        <mxCell id="ErytSRjThVYuVtmWc2yD-267" value="1" style="shape=partialRectangle;html=1;whiteSpace=wrap;connectable=0;overflow=hidden;fillColor=none;top=0;left=0;bottom=0;right=0;pointerEvents=1;" vertex="1" parent="ErytSRjThVYuVtmWc2yD-263">
          <mxGeometry x="86" width="28" height="29" as="geometry">
            <mxRectangle width="28" height="29" as="alternateBounds" />
          </mxGeometry>
        </mxCell>
        <mxCell id="ErytSRjThVYuVtmWc2yD-268" value="2" style="shape=partialRectangle;html=1;whiteSpace=wrap;connectable=0;overflow=hidden;fillColor=none;top=0;left=0;bottom=0;right=0;pointerEvents=1;" vertex="1" parent="ErytSRjThVYuVtmWc2yD-263">
          <mxGeometry x="114" width="29" height="29" as="geometry">
            <mxRectangle width="29" height="29" as="alternateBounds" />
          </mxGeometry>
        </mxCell>
        <mxCell id="ErytSRjThVYuVtmWc2yD-269" value="" style="shape=partialRectangle;html=1;whiteSpace=wrap;connectable=0;overflow=hidden;fillColor=none;top=0;left=0;bottom=0;right=0;pointerEvents=1;" vertex="1" parent="ErytSRjThVYuVtmWc2yD-263">
          <mxGeometry x="143" width="28" height="29" as="geometry">
            <mxRectangle width="28" height="29" as="alternateBounds" />
          </mxGeometry>
        </mxCell>
        <mxCell id="ErytSRjThVYuVtmWc2yD-270" value="" style="shape=partialRectangle;html=1;whiteSpace=wrap;connectable=0;overflow=hidden;fillColor=none;top=0;left=0;bottom=0;right=0;pointerEvents=1;" vertex="1" parent="ErytSRjThVYuVtmWc2yD-263">
          <mxGeometry x="171" width="29" height="29" as="geometry">
            <mxRectangle width="29" height="29" as="alternateBounds" />
          </mxGeometry>
        </mxCell>
        <mxCell id="ErytSRjThVYuVtmWc2yD-271" value="" style="shape=partialRectangle;collapsible=0;dropTarget=0;pointerEvents=0;fillColor=none;top=0;left=0;bottom=0;right=0;points=[[0,0.5],[1,0.5]];portConstraint=eastwest;" vertex="1" parent="ErytSRjThVYuVtmWc2yD-246">
          <mxGeometry y="86" width="200" height="28" as="geometry" />
        </mxCell>
        <mxCell id="ErytSRjThVYuVtmWc2yD-272" value="" style="shape=partialRectangle;html=1;whiteSpace=wrap;connectable=0;overflow=hidden;fillColor=none;top=0;left=0;bottom=0;right=0;pointerEvents=1;" vertex="1" parent="ErytSRjThVYuVtmWc2yD-271">
          <mxGeometry width="29" height="28" as="geometry">
            <mxRectangle width="29" height="28" as="alternateBounds" />
          </mxGeometry>
        </mxCell>
        <mxCell id="ErytSRjThVYuVtmWc2yD-273" value="2" style="shape=partialRectangle;html=1;whiteSpace=wrap;connectable=0;overflow=hidden;fillColor=none;top=0;left=0;bottom=0;right=0;pointerEvents=1;" vertex="1" parent="ErytSRjThVYuVtmWc2yD-271">
          <mxGeometry x="29" width="28" height="28" as="geometry">
            <mxRectangle width="28" height="28" as="alternateBounds" />
          </mxGeometry>
        </mxCell>
        <mxCell id="ErytSRjThVYuVtmWc2yD-274" value="" style="shape=partialRectangle;html=1;whiteSpace=wrap;connectable=0;overflow=hidden;fillColor=none;top=0;left=0;bottom=0;right=0;pointerEvents=1;" vertex="1" parent="ErytSRjThVYuVtmWc2yD-271">
          <mxGeometry x="57" width="29" height="28" as="geometry">
            <mxRectangle width="29" height="28" as="alternateBounds" />
          </mxGeometry>
        </mxCell>
        <mxCell id="ErytSRjThVYuVtmWc2yD-275" value="1" style="shape=partialRectangle;html=1;whiteSpace=wrap;connectable=0;overflow=hidden;fillColor=none;top=0;left=0;bottom=0;right=0;pointerEvents=1;" vertex="1" parent="ErytSRjThVYuVtmWc2yD-271">
          <mxGeometry x="86" width="28" height="28" as="geometry">
            <mxRectangle width="28" height="28" as="alternateBounds" />
          </mxGeometry>
        </mxCell>
        <mxCell id="ErytSRjThVYuVtmWc2yD-276" value="1" style="shape=partialRectangle;html=1;whiteSpace=wrap;connectable=0;overflow=hidden;fillColor=none;top=0;left=0;bottom=0;right=0;pointerEvents=1;" vertex="1" parent="ErytSRjThVYuVtmWc2yD-271">
          <mxGeometry x="114" width="29" height="28" as="geometry">
            <mxRectangle width="29" height="28" as="alternateBounds" />
          </mxGeometry>
        </mxCell>
        <mxCell id="ErytSRjThVYuVtmWc2yD-277" value="" style="shape=partialRectangle;html=1;whiteSpace=wrap;connectable=0;overflow=hidden;fillColor=none;top=0;left=0;bottom=0;right=0;pointerEvents=1;" vertex="1" parent="ErytSRjThVYuVtmWc2yD-271">
          <mxGeometry x="143" width="28" height="28" as="geometry">
            <mxRectangle width="28" height="28" as="alternateBounds" />
          </mxGeometry>
        </mxCell>
        <mxCell id="ErytSRjThVYuVtmWc2yD-278" value="" style="shape=partialRectangle;html=1;whiteSpace=wrap;connectable=0;overflow=hidden;fillColor=none;top=0;left=0;bottom=0;right=0;pointerEvents=1;" vertex="1" parent="ErytSRjThVYuVtmWc2yD-271">
          <mxGeometry x="171" width="29" height="28" as="geometry">
            <mxRectangle width="29" height="28" as="alternateBounds" />
          </mxGeometry>
        </mxCell>
        <mxCell id="ErytSRjThVYuVtmWc2yD-279" value="" style="shape=partialRectangle;collapsible=0;dropTarget=0;pointerEvents=0;fillColor=none;top=0;left=0;bottom=0;right=0;points=[[0,0.5],[1,0.5]];portConstraint=eastwest;" vertex="1" parent="ErytSRjThVYuVtmWc2yD-246">
          <mxGeometry y="114" width="200" height="29" as="geometry" />
        </mxCell>
        <mxCell id="ErytSRjThVYuVtmWc2yD-280" value="2" style="shape=partialRectangle;html=1;whiteSpace=wrap;connectable=0;overflow=hidden;fillColor=none;top=0;left=0;bottom=0;right=0;pointerEvents=1;" vertex="1" parent="ErytSRjThVYuVtmWc2yD-279">
          <mxGeometry width="29" height="29" as="geometry">
            <mxRectangle width="29" height="29" as="alternateBounds" />
          </mxGeometry>
        </mxCell>
        <mxCell id="ErytSRjThVYuVtmWc2yD-281" value="" style="shape=partialRectangle;html=1;whiteSpace=wrap;connectable=0;overflow=hidden;fillColor=none;top=0;left=0;bottom=0;right=0;pointerEvents=1;" vertex="1" parent="ErytSRjThVYuVtmWc2yD-279">
          <mxGeometry x="29" width="28" height="29" as="geometry">
            <mxRectangle width="28" height="29" as="alternateBounds" />
          </mxGeometry>
        </mxCell>
        <mxCell id="ErytSRjThVYuVtmWc2yD-282" value="" style="shape=partialRectangle;html=1;whiteSpace=wrap;connectable=0;overflow=hidden;fillColor=none;top=0;left=0;bottom=0;right=0;pointerEvents=1;" vertex="1" parent="ErytSRjThVYuVtmWc2yD-279">
          <mxGeometry x="57" width="29" height="29" as="geometry">
            <mxRectangle width="29" height="29" as="alternateBounds" />
          </mxGeometry>
        </mxCell>
        <mxCell id="ErytSRjThVYuVtmWc2yD-283" value="1" style="shape=partialRectangle;html=1;whiteSpace=wrap;connectable=0;overflow=hidden;fillColor=none;top=0;left=0;bottom=0;right=0;pointerEvents=1;" vertex="1" parent="ErytSRjThVYuVtmWc2yD-279">
          <mxGeometry x="86" width="28" height="29" as="geometry">
            <mxRectangle width="28" height="29" as="alternateBounds" />
          </mxGeometry>
        </mxCell>
        <mxCell id="ErytSRjThVYuVtmWc2yD-284" value="" style="shape=partialRectangle;html=1;whiteSpace=wrap;connectable=0;overflow=hidden;fillColor=none;top=0;left=0;bottom=0;right=0;pointerEvents=1;" vertex="1" parent="ErytSRjThVYuVtmWc2yD-279">
          <mxGeometry x="114" width="29" height="29" as="geometry">
            <mxRectangle width="29" height="29" as="alternateBounds" />
          </mxGeometry>
        </mxCell>
        <mxCell id="ErytSRjThVYuVtmWc2yD-285" value="1" style="shape=partialRectangle;html=1;whiteSpace=wrap;connectable=0;overflow=hidden;fillColor=none;top=0;left=0;bottom=0;right=0;pointerEvents=1;" vertex="1" parent="ErytSRjThVYuVtmWc2yD-279">
          <mxGeometry x="143" width="28" height="29" as="geometry">
            <mxRectangle width="28" height="29" as="alternateBounds" />
          </mxGeometry>
        </mxCell>
        <mxCell id="ErytSRjThVYuVtmWc2yD-286" value="" style="shape=partialRectangle;html=1;whiteSpace=wrap;connectable=0;overflow=hidden;fillColor=none;top=0;left=0;bottom=0;right=0;pointerEvents=1;" vertex="1" parent="ErytSRjThVYuVtmWc2yD-279">
          <mxGeometry x="171" width="29" height="29" as="geometry">
            <mxRectangle width="29" height="29" as="alternateBounds" />
          </mxGeometry>
        </mxCell>
        <mxCell id="ErytSRjThVYuVtmWc2yD-287" value="" style="shape=partialRectangle;collapsible=0;dropTarget=0;pointerEvents=0;fillColor=none;top=0;left=0;bottom=0;right=0;points=[[0,0.5],[1,0.5]];portConstraint=eastwest;" vertex="1" parent="ErytSRjThVYuVtmWc2yD-246">
          <mxGeometry y="143" width="200" height="28" as="geometry" />
        </mxCell>
        <mxCell id="ErytSRjThVYuVtmWc2yD-288" value="" style="shape=partialRectangle;html=1;whiteSpace=wrap;connectable=0;overflow=hidden;fillColor=none;top=0;left=0;bottom=0;right=0;pointerEvents=1;" vertex="1" parent="ErytSRjThVYuVtmWc2yD-287">
          <mxGeometry width="29" height="28" as="geometry">
            <mxRectangle width="29" height="28" as="alternateBounds" />
          </mxGeometry>
        </mxCell>
        <mxCell id="ErytSRjThVYuVtmWc2yD-289" value="" style="shape=partialRectangle;html=1;whiteSpace=wrap;connectable=0;overflow=hidden;fillColor=none;top=0;left=0;bottom=0;right=0;pointerEvents=1;" vertex="1" parent="ErytSRjThVYuVtmWc2yD-287">
          <mxGeometry x="29" width="28" height="28" as="geometry">
            <mxRectangle width="28" height="28" as="alternateBounds" />
          </mxGeometry>
        </mxCell>
        <mxCell id="ErytSRjThVYuVtmWc2yD-290" value="" style="shape=partialRectangle;html=1;whiteSpace=wrap;connectable=0;overflow=hidden;fillColor=none;top=0;left=0;bottom=0;right=0;pointerEvents=1;" vertex="1" parent="ErytSRjThVYuVtmWc2yD-287">
          <mxGeometry x="57" width="29" height="28" as="geometry">
            <mxRectangle width="29" height="28" as="alternateBounds" />
          </mxGeometry>
        </mxCell>
        <mxCell id="ErytSRjThVYuVtmWc2yD-291" value="1" style="shape=partialRectangle;html=1;whiteSpace=wrap;connectable=0;overflow=hidden;fillColor=none;top=0;left=0;bottom=0;right=0;pointerEvents=1;" vertex="1" parent="ErytSRjThVYuVtmWc2yD-287">
          <mxGeometry x="86" width="28" height="28" as="geometry">
            <mxRectangle width="28" height="28" as="alternateBounds" />
          </mxGeometry>
        </mxCell>
        <mxCell id="ErytSRjThVYuVtmWc2yD-292" value="" style="shape=partialRectangle;html=1;whiteSpace=wrap;connectable=0;overflow=hidden;fillColor=none;top=0;left=0;bottom=0;right=0;pointerEvents=1;" vertex="1" parent="ErytSRjThVYuVtmWc2yD-287">
          <mxGeometry x="114" width="29" height="28" as="geometry">
            <mxRectangle width="29" height="28" as="alternateBounds" />
          </mxGeometry>
        </mxCell>
        <mxCell id="ErytSRjThVYuVtmWc2yD-293" value="" style="shape=partialRectangle;html=1;whiteSpace=wrap;connectable=0;overflow=hidden;fillColor=none;top=0;left=0;bottom=0;right=0;pointerEvents=1;" vertex="1" parent="ErytSRjThVYuVtmWc2yD-287">
          <mxGeometry x="143" width="28" height="28" as="geometry">
            <mxRectangle width="28" height="28" as="alternateBounds" />
          </mxGeometry>
        </mxCell>
        <mxCell id="ErytSRjThVYuVtmWc2yD-294" value="" style="shape=partialRectangle;html=1;whiteSpace=wrap;connectable=0;overflow=hidden;fillColor=none;top=0;left=0;bottom=0;right=0;pointerEvents=1;" vertex="1" parent="ErytSRjThVYuVtmWc2yD-287">
          <mxGeometry x="171" width="29" height="28" as="geometry">
            <mxRectangle width="29" height="28" as="alternateBounds" />
          </mxGeometry>
        </mxCell>
        <mxCell id="ErytSRjThVYuVtmWc2yD-295" value="" style="shape=partialRectangle;collapsible=0;dropTarget=0;pointerEvents=0;fillColor=none;top=0;left=0;bottom=0;right=0;points=[[0,0.5],[1,0.5]];portConstraint=eastwest;" vertex="1" parent="ErytSRjThVYuVtmWc2yD-246">
          <mxGeometry y="171" width="200" height="29" as="geometry" />
        </mxCell>
        <mxCell id="ErytSRjThVYuVtmWc2yD-296" value="" style="shape=partialRectangle;html=1;whiteSpace=wrap;connectable=0;overflow=hidden;fillColor=none;top=0;left=0;bottom=0;right=0;pointerEvents=1;" vertex="1" parent="ErytSRjThVYuVtmWc2yD-295">
          <mxGeometry width="29" height="29" as="geometry">
            <mxRectangle width="29" height="29" as="alternateBounds" />
          </mxGeometry>
        </mxCell>
        <mxCell id="ErytSRjThVYuVtmWc2yD-297" value="" style="shape=partialRectangle;html=1;whiteSpace=wrap;connectable=0;overflow=hidden;fillColor=none;top=0;left=0;bottom=0;right=0;pointerEvents=1;" vertex="1" parent="ErytSRjThVYuVtmWc2yD-295">
          <mxGeometry x="29" width="28" height="29" as="geometry">
            <mxRectangle width="28" height="29" as="alternateBounds" />
          </mxGeometry>
        </mxCell>
        <mxCell id="ErytSRjThVYuVtmWc2yD-298" value="" style="shape=partialRectangle;html=1;whiteSpace=wrap;connectable=0;overflow=hidden;fillColor=none;top=0;left=0;bottom=0;right=0;pointerEvents=1;" vertex="1" parent="ErytSRjThVYuVtmWc2yD-295">
          <mxGeometry x="57" width="29" height="29" as="geometry">
            <mxRectangle width="29" height="29" as="alternateBounds" />
          </mxGeometry>
        </mxCell>
        <mxCell id="ErytSRjThVYuVtmWc2yD-299" value="2" style="shape=partialRectangle;html=1;whiteSpace=wrap;connectable=0;overflow=hidden;fillColor=none;top=0;left=0;bottom=0;right=0;pointerEvents=1;" vertex="1" parent="ErytSRjThVYuVtmWc2yD-295">
          <mxGeometry x="86" width="28" height="29" as="geometry">
            <mxRectangle width="28" height="29" as="alternateBounds" />
          </mxGeometry>
        </mxCell>
        <mxCell id="ErytSRjThVYuVtmWc2yD-300" value="" style="shape=partialRectangle;html=1;whiteSpace=wrap;connectable=0;overflow=hidden;fillColor=none;top=0;left=0;bottom=0;right=0;pointerEvents=1;" vertex="1" parent="ErytSRjThVYuVtmWc2yD-295">
          <mxGeometry x="114" width="29" height="29" as="geometry">
            <mxRectangle width="29" height="29" as="alternateBounds" />
          </mxGeometry>
        </mxCell>
        <mxCell id="ErytSRjThVYuVtmWc2yD-301" value="" style="shape=partialRectangle;html=1;whiteSpace=wrap;connectable=0;overflow=hidden;fillColor=none;top=0;left=0;bottom=0;right=0;pointerEvents=1;" vertex="1" parent="ErytSRjThVYuVtmWc2yD-295">
          <mxGeometry x="143" width="28" height="29" as="geometry">
            <mxRectangle width="28" height="29" as="alternateBounds" />
          </mxGeometry>
        </mxCell>
        <mxCell id="ErytSRjThVYuVtmWc2yD-302" value="" style="shape=partialRectangle;html=1;whiteSpace=wrap;connectable=0;overflow=hidden;fillColor=none;top=0;left=0;bottom=0;right=0;pointerEvents=1;" vertex="1" parent="ErytSRjThVYuVtmWc2yD-295">
          <mxGeometry x="171" width="29" height="29" as="geometry">
            <mxRectangle width="29" height="29" as="alternateBounds" />
          </mxGeometry>
        </mxCell>
        <mxCell id="ErytSRjThVYuVtmWc2yD-303" value="Nächster Spieler: 1 Gewinner: X&amp;nbsp;" style="rounded=0;whiteSpace=wrap;html=1;" vertex="1" parent="1">
          <mxGeometry x="40" y="510" width="200" height="30" as="geometry" />
        </mxCell>
        <mxCell id="ErytSRjThVYuVtmWc2yD-304" value="" style="shape=table;startSize=0;container=1;collapsible=0;childLayout=tableLayout;" vertex="1" parent="1">
          <mxGeometry x="290" y="310" width="200" height="200" as="geometry" />
        </mxCell>
        <mxCell id="ErytSRjThVYuVtmWc2yD-305" value="" style="shape=partialRectangle;collapsible=0;dropTarget=0;pointerEvents=0;fillColor=none;top=0;left=0;bottom=0;right=0;points=[[0,0.5],[1,0.5]];portConstraint=eastwest;" vertex="1" parent="ErytSRjThVYuVtmWc2yD-304">
          <mxGeometry width="200" height="29" as="geometry" />
        </mxCell>
        <mxCell id="ErytSRjThVYuVtmWc2yD-306" value="" style="shape=partialRectangle;html=1;whiteSpace=wrap;connectable=0;overflow=hidden;fillColor=none;top=0;left=0;bottom=0;right=0;pointerEvents=1;" vertex="1" parent="ErytSRjThVYuVtmWc2yD-305">
          <mxGeometry width="29" height="29" as="geometry">
            <mxRectangle width="29" height="29" as="alternateBounds" />
          </mxGeometry>
        </mxCell>
        <mxCell id="ErytSRjThVYuVtmWc2yD-307" value="" style="shape=partialRectangle;html=1;whiteSpace=wrap;connectable=0;overflow=hidden;fillColor=none;top=0;left=0;bottom=0;right=0;pointerEvents=1;" vertex="1" parent="ErytSRjThVYuVtmWc2yD-305">
          <mxGeometry x="29" width="28" height="29" as="geometry">
            <mxRectangle width="28" height="29" as="alternateBounds" />
          </mxGeometry>
        </mxCell>
        <mxCell id="ErytSRjThVYuVtmWc2yD-308" value="" style="shape=partialRectangle;html=1;whiteSpace=wrap;connectable=0;overflow=hidden;fillColor=none;top=0;left=0;bottom=0;right=0;pointerEvents=1;" vertex="1" parent="ErytSRjThVYuVtmWc2yD-305">
          <mxGeometry x="57" width="29" height="29" as="geometry">
            <mxRectangle width="29" height="29" as="alternateBounds" />
          </mxGeometry>
        </mxCell>
        <mxCell id="ErytSRjThVYuVtmWc2yD-309" value="" style="shape=partialRectangle;html=1;whiteSpace=wrap;connectable=0;overflow=hidden;fillColor=none;top=0;left=0;bottom=0;right=0;pointerEvents=1;" vertex="1" parent="ErytSRjThVYuVtmWc2yD-305">
          <mxGeometry x="86" width="28" height="29" as="geometry">
            <mxRectangle width="28" height="29" as="alternateBounds" />
          </mxGeometry>
        </mxCell>
        <mxCell id="ErytSRjThVYuVtmWc2yD-310" value="2" style="shape=partialRectangle;html=1;whiteSpace=wrap;connectable=0;overflow=hidden;fillColor=none;top=0;left=0;bottom=0;right=0;pointerEvents=1;" vertex="1" parent="ErytSRjThVYuVtmWc2yD-305">
          <mxGeometry x="114" width="29" height="29" as="geometry">
            <mxRectangle width="29" height="29" as="alternateBounds" />
          </mxGeometry>
        </mxCell>
        <mxCell id="ErytSRjThVYuVtmWc2yD-311" value="" style="shape=partialRectangle;html=1;whiteSpace=wrap;connectable=0;overflow=hidden;fillColor=none;top=0;left=0;bottom=0;right=0;pointerEvents=1;" vertex="1" parent="ErytSRjThVYuVtmWc2yD-305">
          <mxGeometry x="143" width="28" height="29" as="geometry">
            <mxRectangle width="28" height="29" as="alternateBounds" />
          </mxGeometry>
        </mxCell>
        <mxCell id="ErytSRjThVYuVtmWc2yD-312" value="" style="shape=partialRectangle;html=1;whiteSpace=wrap;connectable=0;overflow=hidden;fillColor=none;top=0;left=0;bottom=0;right=0;pointerEvents=1;" vertex="1" parent="ErytSRjThVYuVtmWc2yD-305">
          <mxGeometry x="171" width="29" height="29" as="geometry">
            <mxRectangle width="29" height="29" as="alternateBounds" />
          </mxGeometry>
        </mxCell>
        <mxCell id="ErytSRjThVYuVtmWc2yD-313" value="" style="shape=partialRectangle;collapsible=0;dropTarget=0;pointerEvents=0;fillColor=none;top=0;left=0;bottom=0;right=0;points=[[0,0.5],[1,0.5]];portConstraint=eastwest;" vertex="1" parent="ErytSRjThVYuVtmWc2yD-304">
          <mxGeometry y="29" width="200" height="28" as="geometry" />
        </mxCell>
        <mxCell id="ErytSRjThVYuVtmWc2yD-314" value="" style="shape=partialRectangle;html=1;whiteSpace=wrap;connectable=0;overflow=hidden;fillColor=none;top=0;left=0;bottom=0;right=0;pointerEvents=1;" vertex="1" parent="ErytSRjThVYuVtmWc2yD-313">
          <mxGeometry width="29" height="28" as="geometry">
            <mxRectangle width="29" height="28" as="alternateBounds" />
          </mxGeometry>
        </mxCell>
        <mxCell id="ErytSRjThVYuVtmWc2yD-315" value="" style="shape=partialRectangle;html=1;whiteSpace=wrap;connectable=0;overflow=hidden;fillColor=none;top=0;left=0;bottom=0;right=0;pointerEvents=1;" vertex="1" parent="ErytSRjThVYuVtmWc2yD-313">
          <mxGeometry x="29" width="28" height="28" as="geometry">
            <mxRectangle width="28" height="28" as="alternateBounds" />
          </mxGeometry>
        </mxCell>
        <mxCell id="ErytSRjThVYuVtmWc2yD-316" value="" style="shape=partialRectangle;html=1;whiteSpace=wrap;connectable=0;overflow=hidden;fillColor=none;top=0;left=0;bottom=0;right=0;pointerEvents=1;" vertex="1" parent="ErytSRjThVYuVtmWc2yD-313">
          <mxGeometry x="57" width="29" height="28" as="geometry">
            <mxRectangle width="29" height="28" as="alternateBounds" />
          </mxGeometry>
        </mxCell>
        <mxCell id="ErytSRjThVYuVtmWc2yD-317" value="2" style="shape=partialRectangle;html=1;whiteSpace=wrap;connectable=0;overflow=hidden;fillColor=none;top=0;left=0;bottom=0;right=0;pointerEvents=1;" vertex="1" parent="ErytSRjThVYuVtmWc2yD-313">
          <mxGeometry x="86" width="28" height="28" as="geometry">
            <mxRectangle width="28" height="28" as="alternateBounds" />
          </mxGeometry>
        </mxCell>
        <mxCell id="ErytSRjThVYuVtmWc2yD-318" value="" style="shape=partialRectangle;html=1;whiteSpace=wrap;connectable=0;overflow=hidden;fillColor=none;top=0;left=0;bottom=0;right=0;pointerEvents=1;" vertex="1" parent="ErytSRjThVYuVtmWc2yD-313">
          <mxGeometry x="114" width="29" height="28" as="geometry">
            <mxRectangle width="29" height="28" as="alternateBounds" />
          </mxGeometry>
        </mxCell>
        <mxCell id="ErytSRjThVYuVtmWc2yD-319" value="" style="shape=partialRectangle;html=1;whiteSpace=wrap;connectable=0;overflow=hidden;fillColor=none;top=0;left=0;bottom=0;right=0;pointerEvents=1;" vertex="1" parent="ErytSRjThVYuVtmWc2yD-313">
          <mxGeometry x="143" width="28" height="28" as="geometry">
            <mxRectangle width="28" height="28" as="alternateBounds" />
          </mxGeometry>
        </mxCell>
        <mxCell id="ErytSRjThVYuVtmWc2yD-320" value="" style="shape=partialRectangle;html=1;whiteSpace=wrap;connectable=0;overflow=hidden;fillColor=none;top=0;left=0;bottom=0;right=0;pointerEvents=1;" vertex="1" parent="ErytSRjThVYuVtmWc2yD-313">
          <mxGeometry x="171" width="29" height="28" as="geometry">
            <mxRectangle width="29" height="28" as="alternateBounds" />
          </mxGeometry>
        </mxCell>
        <mxCell id="ErytSRjThVYuVtmWc2yD-321" value="" style="shape=partialRectangle;collapsible=0;dropTarget=0;pointerEvents=0;fillColor=none;top=0;left=0;bottom=0;right=0;points=[[0,0.5],[1,0.5]];portConstraint=eastwest;" vertex="1" parent="ErytSRjThVYuVtmWc2yD-304">
          <mxGeometry y="57" width="200" height="29" as="geometry" />
        </mxCell>
        <mxCell id="ErytSRjThVYuVtmWc2yD-322" value="" style="shape=partialRectangle;html=1;whiteSpace=wrap;connectable=0;overflow=hidden;fillColor=none;top=0;left=0;bottom=0;right=0;pointerEvents=1;" vertex="1" parent="ErytSRjThVYuVtmWc2yD-321">
          <mxGeometry width="29" height="29" as="geometry">
            <mxRectangle width="29" height="29" as="alternateBounds" />
          </mxGeometry>
        </mxCell>
        <mxCell id="ErytSRjThVYuVtmWc2yD-323" value="" style="shape=partialRectangle;html=1;whiteSpace=wrap;connectable=0;overflow=hidden;fillColor=none;top=0;left=0;bottom=0;right=0;pointerEvents=1;" vertex="1" parent="ErytSRjThVYuVtmWc2yD-321">
          <mxGeometry x="29" width="28" height="29" as="geometry">
            <mxRectangle width="28" height="29" as="alternateBounds" />
          </mxGeometry>
        </mxCell>
        <mxCell id="ErytSRjThVYuVtmWc2yD-324" value="2" style="shape=partialRectangle;html=1;whiteSpace=wrap;connectable=0;overflow=hidden;fillColor=none;top=0;left=0;bottom=0;right=0;pointerEvents=1;" vertex="1" parent="ErytSRjThVYuVtmWc2yD-321">
          <mxGeometry x="57" width="29" height="29" as="geometry">
            <mxRectangle width="29" height="29" as="alternateBounds" />
          </mxGeometry>
        </mxCell>
        <mxCell id="ErytSRjThVYuVtmWc2yD-325" value="1" style="shape=partialRectangle;html=1;whiteSpace=wrap;connectable=0;overflow=hidden;fillColor=none;top=0;left=0;bottom=0;right=0;pointerEvents=1;" vertex="1" parent="ErytSRjThVYuVtmWc2yD-321">
          <mxGeometry x="86" width="28" height="29" as="geometry">
            <mxRectangle width="28" height="29" as="alternateBounds" />
          </mxGeometry>
        </mxCell>
        <mxCell id="ErytSRjThVYuVtmWc2yD-326" value="2" style="shape=partialRectangle;html=1;whiteSpace=wrap;connectable=0;overflow=hidden;fillColor=none;top=0;left=0;bottom=0;right=0;pointerEvents=1;" vertex="1" parent="ErytSRjThVYuVtmWc2yD-321">
          <mxGeometry x="114" width="29" height="29" as="geometry">
            <mxRectangle width="29" height="29" as="alternateBounds" />
          </mxGeometry>
        </mxCell>
        <mxCell id="ErytSRjThVYuVtmWc2yD-327" value="" style="shape=partialRectangle;html=1;whiteSpace=wrap;connectable=0;overflow=hidden;fillColor=none;top=0;left=0;bottom=0;right=0;pointerEvents=1;" vertex="1" parent="ErytSRjThVYuVtmWc2yD-321">
          <mxGeometry x="143" width="28" height="29" as="geometry">
            <mxRectangle width="28" height="29" as="alternateBounds" />
          </mxGeometry>
        </mxCell>
        <mxCell id="ErytSRjThVYuVtmWc2yD-328" value="" style="shape=partialRectangle;html=1;whiteSpace=wrap;connectable=0;overflow=hidden;fillColor=none;top=0;left=0;bottom=0;right=0;pointerEvents=1;" vertex="1" parent="ErytSRjThVYuVtmWc2yD-321">
          <mxGeometry x="171" width="29" height="29" as="geometry">
            <mxRectangle width="29" height="29" as="alternateBounds" />
          </mxGeometry>
        </mxCell>
        <mxCell id="ErytSRjThVYuVtmWc2yD-329" value="" style="shape=partialRectangle;collapsible=0;dropTarget=0;pointerEvents=0;fillColor=none;top=0;left=0;bottom=0;right=0;points=[[0,0.5],[1,0.5]];portConstraint=eastwest;" vertex="1" parent="ErytSRjThVYuVtmWc2yD-304">
          <mxGeometry y="86" width="200" height="28" as="geometry" />
        </mxCell>
        <mxCell id="ErytSRjThVYuVtmWc2yD-330" value="" style="shape=partialRectangle;html=1;whiteSpace=wrap;connectable=0;overflow=hidden;fillColor=none;top=0;left=0;bottom=0;right=0;pointerEvents=1;" vertex="1" parent="ErytSRjThVYuVtmWc2yD-329">
          <mxGeometry width="29" height="28" as="geometry">
            <mxRectangle width="29" height="28" as="alternateBounds" />
          </mxGeometry>
        </mxCell>
        <mxCell id="ErytSRjThVYuVtmWc2yD-331" value="2" style="shape=partialRectangle;html=1;whiteSpace=wrap;connectable=0;overflow=hidden;fillColor=none;top=0;left=0;bottom=0;right=0;pointerEvents=1;" vertex="1" parent="ErytSRjThVYuVtmWc2yD-329">
          <mxGeometry x="29" width="28" height="28" as="geometry">
            <mxRectangle width="28" height="28" as="alternateBounds" />
          </mxGeometry>
        </mxCell>
        <mxCell id="ErytSRjThVYuVtmWc2yD-332" value="" style="shape=partialRectangle;html=1;whiteSpace=wrap;connectable=0;overflow=hidden;fillColor=none;top=0;left=0;bottom=0;right=0;pointerEvents=1;" vertex="1" parent="ErytSRjThVYuVtmWc2yD-329">
          <mxGeometry x="57" width="29" height="28" as="geometry">
            <mxRectangle width="29" height="28" as="alternateBounds" />
          </mxGeometry>
        </mxCell>
        <mxCell id="ErytSRjThVYuVtmWc2yD-333" value="1" style="shape=partialRectangle;html=1;whiteSpace=wrap;connectable=0;overflow=hidden;fillColor=none;top=0;left=0;bottom=0;right=0;pointerEvents=1;" vertex="1" parent="ErytSRjThVYuVtmWc2yD-329">
          <mxGeometry x="86" width="28" height="28" as="geometry">
            <mxRectangle width="28" height="28" as="alternateBounds" />
          </mxGeometry>
        </mxCell>
        <mxCell id="ErytSRjThVYuVtmWc2yD-334" value="1" style="shape=partialRectangle;html=1;whiteSpace=wrap;connectable=0;overflow=hidden;fillColor=none;top=0;left=0;bottom=0;right=0;pointerEvents=1;" vertex="1" parent="ErytSRjThVYuVtmWc2yD-329">
          <mxGeometry x="114" width="29" height="28" as="geometry">
            <mxRectangle width="29" height="28" as="alternateBounds" />
          </mxGeometry>
        </mxCell>
        <mxCell id="ErytSRjThVYuVtmWc2yD-335" value="" style="shape=partialRectangle;html=1;whiteSpace=wrap;connectable=0;overflow=hidden;fillColor=none;top=0;left=0;bottom=0;right=0;pointerEvents=1;" vertex="1" parent="ErytSRjThVYuVtmWc2yD-329">
          <mxGeometry x="143" width="28" height="28" as="geometry">
            <mxRectangle width="28" height="28" as="alternateBounds" />
          </mxGeometry>
        </mxCell>
        <mxCell id="ErytSRjThVYuVtmWc2yD-336" value="" style="shape=partialRectangle;html=1;whiteSpace=wrap;connectable=0;overflow=hidden;fillColor=none;top=0;left=0;bottom=0;right=0;pointerEvents=1;" vertex="1" parent="ErytSRjThVYuVtmWc2yD-329">
          <mxGeometry x="171" width="29" height="28" as="geometry">
            <mxRectangle width="29" height="28" as="alternateBounds" />
          </mxGeometry>
        </mxCell>
        <mxCell id="ErytSRjThVYuVtmWc2yD-337" value="" style="shape=partialRectangle;collapsible=0;dropTarget=0;pointerEvents=0;fillColor=none;top=0;left=0;bottom=0;right=0;points=[[0,0.5],[1,0.5]];portConstraint=eastwest;" vertex="1" parent="ErytSRjThVYuVtmWc2yD-304">
          <mxGeometry y="114" width="200" height="29" as="geometry" />
        </mxCell>
        <mxCell id="ErytSRjThVYuVtmWc2yD-338" value="" style="shape=partialRectangle;html=1;whiteSpace=wrap;connectable=0;overflow=hidden;fillColor=none;top=0;left=0;bottom=0;right=0;pointerEvents=1;" vertex="1" parent="ErytSRjThVYuVtmWc2yD-337">
          <mxGeometry width="29" height="29" as="geometry">
            <mxRectangle width="29" height="29" as="alternateBounds" />
          </mxGeometry>
        </mxCell>
        <mxCell id="ErytSRjThVYuVtmWc2yD-339" value="" style="shape=partialRectangle;html=1;whiteSpace=wrap;connectable=0;overflow=hidden;fillColor=none;top=0;left=0;bottom=0;right=0;pointerEvents=1;" vertex="1" parent="ErytSRjThVYuVtmWc2yD-337">
          <mxGeometry x="29" width="28" height="29" as="geometry">
            <mxRectangle width="28" height="29" as="alternateBounds" />
          </mxGeometry>
        </mxCell>
        <mxCell id="ErytSRjThVYuVtmWc2yD-340" value="" style="shape=partialRectangle;html=1;whiteSpace=wrap;connectable=0;overflow=hidden;fillColor=none;top=0;left=0;bottom=0;right=0;pointerEvents=1;" vertex="1" parent="ErytSRjThVYuVtmWc2yD-337">
          <mxGeometry x="57" width="29" height="29" as="geometry">
            <mxRectangle width="29" height="29" as="alternateBounds" />
          </mxGeometry>
        </mxCell>
        <mxCell id="ErytSRjThVYuVtmWc2yD-341" value="1" style="shape=partialRectangle;html=1;whiteSpace=wrap;connectable=0;overflow=hidden;fillColor=none;top=0;left=0;bottom=0;right=0;pointerEvents=1;" vertex="1" parent="ErytSRjThVYuVtmWc2yD-337">
          <mxGeometry x="86" width="28" height="29" as="geometry">
            <mxRectangle width="28" height="29" as="alternateBounds" />
          </mxGeometry>
        </mxCell>
        <mxCell id="ErytSRjThVYuVtmWc2yD-342" value="" style="shape=partialRectangle;html=1;whiteSpace=wrap;connectable=0;overflow=hidden;fillColor=none;top=0;left=0;bottom=0;right=0;pointerEvents=1;" vertex="1" parent="ErytSRjThVYuVtmWc2yD-337">
          <mxGeometry x="114" width="29" height="29" as="geometry">
            <mxRectangle width="29" height="29" as="alternateBounds" />
          </mxGeometry>
        </mxCell>
        <mxCell id="ErytSRjThVYuVtmWc2yD-343" value="1" style="shape=partialRectangle;html=1;whiteSpace=wrap;connectable=0;overflow=hidden;fillColor=none;top=0;left=0;bottom=0;right=0;pointerEvents=1;" vertex="1" parent="ErytSRjThVYuVtmWc2yD-337">
          <mxGeometry x="143" width="28" height="29" as="geometry">
            <mxRectangle width="28" height="29" as="alternateBounds" />
          </mxGeometry>
        </mxCell>
        <mxCell id="ErytSRjThVYuVtmWc2yD-344" value="" style="shape=partialRectangle;html=1;whiteSpace=wrap;connectable=0;overflow=hidden;fillColor=none;top=0;left=0;bottom=0;right=0;pointerEvents=1;" vertex="1" parent="ErytSRjThVYuVtmWc2yD-337">
          <mxGeometry x="171" width="29" height="29" as="geometry">
            <mxRectangle width="29" height="29" as="alternateBounds" />
          </mxGeometry>
        </mxCell>
        <mxCell id="ErytSRjThVYuVtmWc2yD-345" value="" style="shape=partialRectangle;collapsible=0;dropTarget=0;pointerEvents=0;fillColor=none;top=0;left=0;bottom=0;right=0;points=[[0,0.5],[1,0.5]];portConstraint=eastwest;" vertex="1" parent="ErytSRjThVYuVtmWc2yD-304">
          <mxGeometry y="143" width="200" height="28" as="geometry" />
        </mxCell>
        <mxCell id="ErytSRjThVYuVtmWc2yD-346" value="" style="shape=partialRectangle;html=1;whiteSpace=wrap;connectable=0;overflow=hidden;fillColor=none;top=0;left=0;bottom=0;right=0;pointerEvents=1;" vertex="1" parent="ErytSRjThVYuVtmWc2yD-345">
          <mxGeometry width="29" height="28" as="geometry">
            <mxRectangle width="29" height="28" as="alternateBounds" />
          </mxGeometry>
        </mxCell>
        <mxCell id="ErytSRjThVYuVtmWc2yD-347" value="" style="shape=partialRectangle;html=1;whiteSpace=wrap;connectable=0;overflow=hidden;fillColor=none;top=0;left=0;bottom=0;right=0;pointerEvents=1;" vertex="1" parent="ErytSRjThVYuVtmWc2yD-345">
          <mxGeometry x="29" width="28" height="28" as="geometry">
            <mxRectangle width="28" height="28" as="alternateBounds" />
          </mxGeometry>
        </mxCell>
        <mxCell id="ErytSRjThVYuVtmWc2yD-348" value="" style="shape=partialRectangle;html=1;whiteSpace=wrap;connectable=0;overflow=hidden;fillColor=none;top=0;left=0;bottom=0;right=0;pointerEvents=1;" vertex="1" parent="ErytSRjThVYuVtmWc2yD-345">
          <mxGeometry x="57" width="29" height="28" as="geometry">
            <mxRectangle width="29" height="28" as="alternateBounds" />
          </mxGeometry>
        </mxCell>
        <mxCell id="ErytSRjThVYuVtmWc2yD-349" value="1" style="shape=partialRectangle;html=1;whiteSpace=wrap;connectable=0;overflow=hidden;fillColor=none;top=0;left=0;bottom=0;right=0;pointerEvents=1;" vertex="1" parent="ErytSRjThVYuVtmWc2yD-345">
          <mxGeometry x="86" width="28" height="28" as="geometry">
            <mxRectangle width="28" height="28" as="alternateBounds" />
          </mxGeometry>
        </mxCell>
        <mxCell id="ErytSRjThVYuVtmWc2yD-350" value="" style="shape=partialRectangle;html=1;whiteSpace=wrap;connectable=0;overflow=hidden;fillColor=none;top=0;left=0;bottom=0;right=0;pointerEvents=1;" vertex="1" parent="ErytSRjThVYuVtmWc2yD-345">
          <mxGeometry x="114" width="29" height="28" as="geometry">
            <mxRectangle width="29" height="28" as="alternateBounds" />
          </mxGeometry>
        </mxCell>
        <mxCell id="ErytSRjThVYuVtmWc2yD-351" value="" style="shape=partialRectangle;html=1;whiteSpace=wrap;connectable=0;overflow=hidden;fillColor=none;top=0;left=0;bottom=0;right=0;pointerEvents=1;" vertex="1" parent="ErytSRjThVYuVtmWc2yD-345">
          <mxGeometry x="143" width="28" height="28" as="geometry">
            <mxRectangle width="28" height="28" as="alternateBounds" />
          </mxGeometry>
        </mxCell>
        <mxCell id="ErytSRjThVYuVtmWc2yD-352" value="" style="shape=partialRectangle;html=1;whiteSpace=wrap;connectable=0;overflow=hidden;fillColor=none;top=0;left=0;bottom=0;right=0;pointerEvents=1;" vertex="1" parent="ErytSRjThVYuVtmWc2yD-345">
          <mxGeometry x="171" width="29" height="28" as="geometry">
            <mxRectangle width="29" height="28" as="alternateBounds" />
          </mxGeometry>
        </mxCell>
        <mxCell id="ErytSRjThVYuVtmWc2yD-353" value="" style="shape=partialRectangle;collapsible=0;dropTarget=0;pointerEvents=0;fillColor=none;top=0;left=0;bottom=0;right=0;points=[[0,0.5],[1,0.5]];portConstraint=eastwest;" vertex="1" parent="ErytSRjThVYuVtmWc2yD-304">
          <mxGeometry y="171" width="200" height="29" as="geometry" />
        </mxCell>
        <mxCell id="ErytSRjThVYuVtmWc2yD-354" value="" style="shape=partialRectangle;html=1;whiteSpace=wrap;connectable=0;overflow=hidden;fillColor=none;top=0;left=0;bottom=0;right=0;pointerEvents=1;" vertex="1" parent="ErytSRjThVYuVtmWc2yD-353">
          <mxGeometry width="29" height="29" as="geometry">
            <mxRectangle width="29" height="29" as="alternateBounds" />
          </mxGeometry>
        </mxCell>
        <mxCell id="ErytSRjThVYuVtmWc2yD-355" value="" style="shape=partialRectangle;html=1;whiteSpace=wrap;connectable=0;overflow=hidden;fillColor=none;top=0;left=0;bottom=0;right=0;pointerEvents=1;" vertex="1" parent="ErytSRjThVYuVtmWc2yD-353">
          <mxGeometry x="29" width="28" height="29" as="geometry">
            <mxRectangle width="28" height="29" as="alternateBounds" />
          </mxGeometry>
        </mxCell>
        <mxCell id="ErytSRjThVYuVtmWc2yD-356" value="" style="shape=partialRectangle;html=1;whiteSpace=wrap;connectable=0;overflow=hidden;fillColor=none;top=0;left=0;bottom=0;right=0;pointerEvents=1;" vertex="1" parent="ErytSRjThVYuVtmWc2yD-353">
          <mxGeometry x="57" width="29" height="29" as="geometry">
            <mxRectangle width="29" height="29" as="alternateBounds" />
          </mxGeometry>
        </mxCell>
        <mxCell id="ErytSRjThVYuVtmWc2yD-357" value="2" style="shape=partialRectangle;html=1;whiteSpace=wrap;connectable=0;overflow=hidden;fillColor=none;top=0;left=0;bottom=0;right=0;pointerEvents=1;" vertex="1" parent="ErytSRjThVYuVtmWc2yD-353">
          <mxGeometry x="86" width="28" height="29" as="geometry">
            <mxRectangle width="28" height="29" as="alternateBounds" />
          </mxGeometry>
        </mxCell>
        <mxCell id="ErytSRjThVYuVtmWc2yD-358" value="" style="shape=partialRectangle;html=1;whiteSpace=wrap;connectable=0;overflow=hidden;fillColor=none;top=0;left=0;bottom=0;right=0;pointerEvents=1;" vertex="1" parent="ErytSRjThVYuVtmWc2yD-353">
          <mxGeometry x="114" width="29" height="29" as="geometry">
            <mxRectangle width="29" height="29" as="alternateBounds" />
          </mxGeometry>
        </mxCell>
        <mxCell id="ErytSRjThVYuVtmWc2yD-359" value="" style="shape=partialRectangle;html=1;whiteSpace=wrap;connectable=0;overflow=hidden;fillColor=none;top=0;left=0;bottom=0;right=0;pointerEvents=1;" vertex="1" parent="ErytSRjThVYuVtmWc2yD-353">
          <mxGeometry x="143" width="28" height="29" as="geometry">
            <mxRectangle width="28" height="29" as="alternateBounds" />
          </mxGeometry>
        </mxCell>
        <mxCell id="ErytSRjThVYuVtmWc2yD-360" value="" style="shape=partialRectangle;html=1;whiteSpace=wrap;connectable=0;overflow=hidden;fillColor=none;top=0;left=0;bottom=0;right=0;pointerEvents=1;" vertex="1" parent="ErytSRjThVYuVtmWc2yD-353">
          <mxGeometry x="171" width="29" height="29" as="geometry">
            <mxRectangle width="29" height="29" as="alternateBounds" />
          </mxGeometry>
        </mxCell>
        <mxCell id="ErytSRjThVYuVtmWc2yD-361" value="Nächster Spieler: 1 Gewinner: X&amp;nbsp;" style="rounded=0;whiteSpace=wrap;html=1;" vertex="1" parent="1">
          <mxGeometry x="290" y="510" width="200" height="30" as="geometry" />
        </mxCell>
        <mxCell id="ErytSRjThVYuVtmWc2yD-362" value="" style="shape=table;startSize=0;container=1;collapsible=0;childLayout=tableLayout;" vertex="1" parent="1">
          <mxGeometry x="530" y="310" width="200" height="200" as="geometry" />
        </mxCell>
        <mxCell id="ErytSRjThVYuVtmWc2yD-363" value="" style="shape=partialRectangle;collapsible=0;dropTarget=0;pointerEvents=0;fillColor=none;top=0;left=0;bottom=0;right=0;points=[[0,0.5],[1,0.5]];portConstraint=eastwest;" vertex="1" parent="ErytSRjThVYuVtmWc2yD-362">
          <mxGeometry width="200" height="29" as="geometry" />
        </mxCell>
        <mxCell id="ErytSRjThVYuVtmWc2yD-364" value="" style="shape=partialRectangle;html=1;whiteSpace=wrap;connectable=0;overflow=hidden;fillColor=none;top=0;left=0;bottom=0;right=0;pointerEvents=1;" vertex="1" parent="ErytSRjThVYuVtmWc2yD-363">
          <mxGeometry width="29" height="29" as="geometry">
            <mxRectangle width="29" height="29" as="alternateBounds" />
          </mxGeometry>
        </mxCell>
        <mxCell id="ErytSRjThVYuVtmWc2yD-365" value="" style="shape=partialRectangle;html=1;whiteSpace=wrap;connectable=0;overflow=hidden;fillColor=none;top=0;left=0;bottom=0;right=0;pointerEvents=1;" vertex="1" parent="ErytSRjThVYuVtmWc2yD-363">
          <mxGeometry x="29" width="28" height="29" as="geometry">
            <mxRectangle width="28" height="29" as="alternateBounds" />
          </mxGeometry>
        </mxCell>
        <mxCell id="ErytSRjThVYuVtmWc2yD-366" value="" style="shape=partialRectangle;html=1;whiteSpace=wrap;connectable=0;overflow=hidden;fillColor=none;top=0;left=0;bottom=0;right=0;pointerEvents=1;" vertex="1" parent="ErytSRjThVYuVtmWc2yD-363">
          <mxGeometry x="57" width="29" height="29" as="geometry">
            <mxRectangle width="29" height="29" as="alternateBounds" />
          </mxGeometry>
        </mxCell>
        <mxCell id="ErytSRjThVYuVtmWc2yD-367" value="" style="shape=partialRectangle;html=1;whiteSpace=wrap;connectable=0;overflow=hidden;fillColor=none;top=0;left=0;bottom=0;right=0;pointerEvents=1;" vertex="1" parent="ErytSRjThVYuVtmWc2yD-363">
          <mxGeometry x="86" width="28" height="29" as="geometry">
            <mxRectangle width="28" height="29" as="alternateBounds" />
          </mxGeometry>
        </mxCell>
        <mxCell id="ErytSRjThVYuVtmWc2yD-368" value="" style="shape=partialRectangle;html=1;whiteSpace=wrap;connectable=0;overflow=hidden;fillColor=none;top=0;left=0;bottom=0;right=0;pointerEvents=1;" vertex="1" parent="ErytSRjThVYuVtmWc2yD-363">
          <mxGeometry x="114" width="29" height="29" as="geometry">
            <mxRectangle width="29" height="29" as="alternateBounds" />
          </mxGeometry>
        </mxCell>
        <mxCell id="ErytSRjThVYuVtmWc2yD-369" value="" style="shape=partialRectangle;html=1;whiteSpace=wrap;connectable=0;overflow=hidden;fillColor=none;top=0;left=0;bottom=0;right=0;pointerEvents=1;" vertex="1" parent="ErytSRjThVYuVtmWc2yD-363">
          <mxGeometry x="143" width="28" height="29" as="geometry">
            <mxRectangle width="28" height="29" as="alternateBounds" />
          </mxGeometry>
        </mxCell>
        <mxCell id="ErytSRjThVYuVtmWc2yD-370" value="" style="shape=partialRectangle;html=1;whiteSpace=wrap;connectable=0;overflow=hidden;fillColor=none;top=0;left=0;bottom=0;right=0;pointerEvents=1;" vertex="1" parent="ErytSRjThVYuVtmWc2yD-363">
          <mxGeometry x="171" width="29" height="29" as="geometry">
            <mxRectangle width="29" height="29" as="alternateBounds" />
          </mxGeometry>
        </mxCell>
        <mxCell id="ErytSRjThVYuVtmWc2yD-371" value="" style="shape=partialRectangle;collapsible=0;dropTarget=0;pointerEvents=0;fillColor=none;top=0;left=0;bottom=0;right=0;points=[[0,0.5],[1,0.5]];portConstraint=eastwest;" vertex="1" parent="ErytSRjThVYuVtmWc2yD-362">
          <mxGeometry y="29" width="200" height="28" as="geometry" />
        </mxCell>
        <mxCell id="ErytSRjThVYuVtmWc2yD-372" value="" style="shape=partialRectangle;html=1;whiteSpace=wrap;connectable=0;overflow=hidden;fillColor=none;top=0;left=0;bottom=0;right=0;pointerEvents=1;" vertex="1" parent="ErytSRjThVYuVtmWc2yD-371">
          <mxGeometry width="29" height="28" as="geometry">
            <mxRectangle width="29" height="28" as="alternateBounds" />
          </mxGeometry>
        </mxCell>
        <mxCell id="ErytSRjThVYuVtmWc2yD-373" value="" style="shape=partialRectangle;html=1;whiteSpace=wrap;connectable=0;overflow=hidden;fillColor=none;top=0;left=0;bottom=0;right=0;pointerEvents=1;" vertex="1" parent="ErytSRjThVYuVtmWc2yD-371">
          <mxGeometry x="29" width="28" height="28" as="geometry">
            <mxRectangle width="28" height="28" as="alternateBounds" />
          </mxGeometry>
        </mxCell>
        <mxCell id="ErytSRjThVYuVtmWc2yD-374" value="" style="shape=partialRectangle;html=1;whiteSpace=wrap;connectable=0;overflow=hidden;fillColor=none;top=0;left=0;bottom=0;right=0;pointerEvents=1;" vertex="1" parent="ErytSRjThVYuVtmWc2yD-371">
          <mxGeometry x="57" width="29" height="28" as="geometry">
            <mxRectangle width="29" height="28" as="alternateBounds" />
          </mxGeometry>
        </mxCell>
        <mxCell id="ErytSRjThVYuVtmWc2yD-375" value="2" style="shape=partialRectangle;html=1;whiteSpace=wrap;connectable=0;overflow=hidden;fillColor=none;top=0;left=0;bottom=0;right=0;pointerEvents=1;" vertex="1" parent="ErytSRjThVYuVtmWc2yD-371">
          <mxGeometry x="86" width="28" height="28" as="geometry">
            <mxRectangle width="28" height="28" as="alternateBounds" />
          </mxGeometry>
        </mxCell>
        <mxCell id="ErytSRjThVYuVtmWc2yD-376" value="" style="shape=partialRectangle;html=1;whiteSpace=wrap;connectable=0;overflow=hidden;fillColor=none;top=0;left=0;bottom=0;right=0;pointerEvents=1;" vertex="1" parent="ErytSRjThVYuVtmWc2yD-371">
          <mxGeometry x="114" width="29" height="28" as="geometry">
            <mxRectangle width="29" height="28" as="alternateBounds" />
          </mxGeometry>
        </mxCell>
        <mxCell id="ErytSRjThVYuVtmWc2yD-377" value="" style="shape=partialRectangle;html=1;whiteSpace=wrap;connectable=0;overflow=hidden;fillColor=none;top=0;left=0;bottom=0;right=0;pointerEvents=1;" vertex="1" parent="ErytSRjThVYuVtmWc2yD-371">
          <mxGeometry x="143" width="28" height="28" as="geometry">
            <mxRectangle width="28" height="28" as="alternateBounds" />
          </mxGeometry>
        </mxCell>
        <mxCell id="ErytSRjThVYuVtmWc2yD-378" value="" style="shape=partialRectangle;html=1;whiteSpace=wrap;connectable=0;overflow=hidden;fillColor=none;top=0;left=0;bottom=0;right=0;pointerEvents=1;" vertex="1" parent="ErytSRjThVYuVtmWc2yD-371">
          <mxGeometry x="171" width="29" height="28" as="geometry">
            <mxRectangle width="29" height="28" as="alternateBounds" />
          </mxGeometry>
        </mxCell>
        <mxCell id="ErytSRjThVYuVtmWc2yD-379" value="" style="shape=partialRectangle;collapsible=0;dropTarget=0;pointerEvents=0;fillColor=none;top=0;left=0;bottom=0;right=0;points=[[0,0.5],[1,0.5]];portConstraint=eastwest;" vertex="1" parent="ErytSRjThVYuVtmWc2yD-362">
          <mxGeometry y="57" width="200" height="29" as="geometry" />
        </mxCell>
        <mxCell id="ErytSRjThVYuVtmWc2yD-380" value="" style="shape=partialRectangle;html=1;whiteSpace=wrap;connectable=0;overflow=hidden;fillColor=none;top=0;left=0;bottom=0;right=0;pointerEvents=1;" vertex="1" parent="ErytSRjThVYuVtmWc2yD-379">
          <mxGeometry width="29" height="29" as="geometry">
            <mxRectangle width="29" height="29" as="alternateBounds" />
          </mxGeometry>
        </mxCell>
        <mxCell id="ErytSRjThVYuVtmWc2yD-381" value="" style="shape=partialRectangle;html=1;whiteSpace=wrap;connectable=0;overflow=hidden;fillColor=none;top=0;left=0;bottom=0;right=0;pointerEvents=1;" vertex="1" parent="ErytSRjThVYuVtmWc2yD-379">
          <mxGeometry x="29" width="28" height="29" as="geometry">
            <mxRectangle width="28" height="29" as="alternateBounds" />
          </mxGeometry>
        </mxCell>
        <mxCell id="ErytSRjThVYuVtmWc2yD-382" value="2" style="shape=partialRectangle;html=1;whiteSpace=wrap;connectable=0;overflow=hidden;fillColor=none;top=0;left=0;bottom=0;right=0;pointerEvents=1;" vertex="1" parent="ErytSRjThVYuVtmWc2yD-379">
          <mxGeometry x="57" width="29" height="29" as="geometry">
            <mxRectangle width="29" height="29" as="alternateBounds" />
          </mxGeometry>
        </mxCell>
        <mxCell id="ErytSRjThVYuVtmWc2yD-383" value="1" style="shape=partialRectangle;html=1;whiteSpace=wrap;connectable=0;overflow=hidden;fillColor=none;top=0;left=0;bottom=0;right=0;pointerEvents=1;" vertex="1" parent="ErytSRjThVYuVtmWc2yD-379">
          <mxGeometry x="86" width="28" height="29" as="geometry">
            <mxRectangle width="28" height="29" as="alternateBounds" />
          </mxGeometry>
        </mxCell>
        <mxCell id="ErytSRjThVYuVtmWc2yD-384" value="2" style="shape=partialRectangle;html=1;whiteSpace=wrap;connectable=0;overflow=hidden;fillColor=none;top=0;left=0;bottom=0;right=0;pointerEvents=1;" vertex="1" parent="ErytSRjThVYuVtmWc2yD-379">
          <mxGeometry x="114" width="29" height="29" as="geometry">
            <mxRectangle width="29" height="29" as="alternateBounds" />
          </mxGeometry>
        </mxCell>
        <mxCell id="ErytSRjThVYuVtmWc2yD-385" value="" style="shape=partialRectangle;html=1;whiteSpace=wrap;connectable=0;overflow=hidden;fillColor=none;top=0;left=0;bottom=0;right=0;pointerEvents=1;" vertex="1" parent="ErytSRjThVYuVtmWc2yD-379">
          <mxGeometry x="143" width="28" height="29" as="geometry">
            <mxRectangle width="28" height="29" as="alternateBounds" />
          </mxGeometry>
        </mxCell>
        <mxCell id="ErytSRjThVYuVtmWc2yD-386" value="" style="shape=partialRectangle;html=1;whiteSpace=wrap;connectable=0;overflow=hidden;fillColor=none;top=0;left=0;bottom=0;right=0;pointerEvents=1;" vertex="1" parent="ErytSRjThVYuVtmWc2yD-379">
          <mxGeometry x="171" width="29" height="29" as="geometry">
            <mxRectangle width="29" height="29" as="alternateBounds" />
          </mxGeometry>
        </mxCell>
        <mxCell id="ErytSRjThVYuVtmWc2yD-387" value="" style="shape=partialRectangle;collapsible=0;dropTarget=0;pointerEvents=0;fillColor=none;top=0;left=0;bottom=0;right=0;points=[[0,0.5],[1,0.5]];portConstraint=eastwest;" vertex="1" parent="ErytSRjThVYuVtmWc2yD-362">
          <mxGeometry y="86" width="200" height="28" as="geometry" />
        </mxCell>
        <mxCell id="ErytSRjThVYuVtmWc2yD-388" value="" style="shape=partialRectangle;html=1;whiteSpace=wrap;connectable=0;overflow=hidden;fillColor=none;top=0;left=0;bottom=0;right=0;pointerEvents=1;" vertex="1" parent="ErytSRjThVYuVtmWc2yD-387">
          <mxGeometry width="29" height="28" as="geometry">
            <mxRectangle width="29" height="28" as="alternateBounds" />
          </mxGeometry>
        </mxCell>
        <mxCell id="ErytSRjThVYuVtmWc2yD-389" value="2" style="shape=partialRectangle;html=1;whiteSpace=wrap;connectable=0;overflow=hidden;fillColor=none;top=0;left=0;bottom=0;right=0;pointerEvents=1;" vertex="1" parent="ErytSRjThVYuVtmWc2yD-387">
          <mxGeometry x="29" width="28" height="28" as="geometry">
            <mxRectangle width="28" height="28" as="alternateBounds" />
          </mxGeometry>
        </mxCell>
        <mxCell id="ErytSRjThVYuVtmWc2yD-390" value="" style="shape=partialRectangle;html=1;whiteSpace=wrap;connectable=0;overflow=hidden;fillColor=none;top=0;left=0;bottom=0;right=0;pointerEvents=1;" vertex="1" parent="ErytSRjThVYuVtmWc2yD-387">
          <mxGeometry x="57" width="29" height="28" as="geometry">
            <mxRectangle width="29" height="28" as="alternateBounds" />
          </mxGeometry>
        </mxCell>
        <mxCell id="ErytSRjThVYuVtmWc2yD-391" value="1" style="shape=partialRectangle;html=1;whiteSpace=wrap;connectable=0;overflow=hidden;fillColor=none;top=0;left=0;bottom=0;right=0;pointerEvents=1;" vertex="1" parent="ErytSRjThVYuVtmWc2yD-387">
          <mxGeometry x="86" width="28" height="28" as="geometry">
            <mxRectangle width="28" height="28" as="alternateBounds" />
          </mxGeometry>
        </mxCell>
        <mxCell id="ErytSRjThVYuVtmWc2yD-392" value="1" style="shape=partialRectangle;html=1;whiteSpace=wrap;connectable=0;overflow=hidden;fillColor=none;top=0;left=0;bottom=0;right=0;pointerEvents=1;" vertex="1" parent="ErytSRjThVYuVtmWc2yD-387">
          <mxGeometry x="114" width="29" height="28" as="geometry">
            <mxRectangle width="29" height="28" as="alternateBounds" />
          </mxGeometry>
        </mxCell>
        <mxCell id="ErytSRjThVYuVtmWc2yD-393" value="" style="shape=partialRectangle;html=1;whiteSpace=wrap;connectable=0;overflow=hidden;fillColor=none;top=0;left=0;bottom=0;right=0;pointerEvents=1;" vertex="1" parent="ErytSRjThVYuVtmWc2yD-387">
          <mxGeometry x="143" width="28" height="28" as="geometry">
            <mxRectangle width="28" height="28" as="alternateBounds" />
          </mxGeometry>
        </mxCell>
        <mxCell id="ErytSRjThVYuVtmWc2yD-394" value="" style="shape=partialRectangle;html=1;whiteSpace=wrap;connectable=0;overflow=hidden;fillColor=none;top=0;left=0;bottom=0;right=0;pointerEvents=1;" vertex="1" parent="ErytSRjThVYuVtmWc2yD-387">
          <mxGeometry x="171" width="29" height="28" as="geometry">
            <mxRectangle width="29" height="28" as="alternateBounds" />
          </mxGeometry>
        </mxCell>
        <mxCell id="ErytSRjThVYuVtmWc2yD-395" value="" style="shape=partialRectangle;collapsible=0;dropTarget=0;pointerEvents=0;fillColor=none;top=0;left=0;bottom=0;right=0;points=[[0,0.5],[1,0.5]];portConstraint=eastwest;" vertex="1" parent="ErytSRjThVYuVtmWc2yD-362">
          <mxGeometry y="114" width="200" height="29" as="geometry" />
        </mxCell>
        <mxCell id="ErytSRjThVYuVtmWc2yD-396" value="" style="shape=partialRectangle;html=1;whiteSpace=wrap;connectable=0;overflow=hidden;fillColor=none;top=0;left=0;bottom=0;right=0;pointerEvents=1;" vertex="1" parent="ErytSRjThVYuVtmWc2yD-395">
          <mxGeometry width="29" height="29" as="geometry">
            <mxRectangle width="29" height="29" as="alternateBounds" />
          </mxGeometry>
        </mxCell>
        <mxCell id="ErytSRjThVYuVtmWc2yD-397" value="" style="shape=partialRectangle;html=1;whiteSpace=wrap;connectable=0;overflow=hidden;fillColor=none;top=0;left=0;bottom=0;right=0;pointerEvents=1;" vertex="1" parent="ErytSRjThVYuVtmWc2yD-395">
          <mxGeometry x="29" width="28" height="29" as="geometry">
            <mxRectangle width="28" height="29" as="alternateBounds" />
          </mxGeometry>
        </mxCell>
        <mxCell id="ErytSRjThVYuVtmWc2yD-398" value="" style="shape=partialRectangle;html=1;whiteSpace=wrap;connectable=0;overflow=hidden;fillColor=none;top=0;left=0;bottom=0;right=0;pointerEvents=1;" vertex="1" parent="ErytSRjThVYuVtmWc2yD-395">
          <mxGeometry x="57" width="29" height="29" as="geometry">
            <mxRectangle width="29" height="29" as="alternateBounds" />
          </mxGeometry>
        </mxCell>
        <mxCell id="ErytSRjThVYuVtmWc2yD-399" value="1" style="shape=partialRectangle;html=1;whiteSpace=wrap;connectable=0;overflow=hidden;fillColor=none;top=0;left=0;bottom=0;right=0;pointerEvents=1;" vertex="1" parent="ErytSRjThVYuVtmWc2yD-395">
          <mxGeometry x="86" width="28" height="29" as="geometry">
            <mxRectangle width="28" height="29" as="alternateBounds" />
          </mxGeometry>
        </mxCell>
        <mxCell id="ErytSRjThVYuVtmWc2yD-400" value="" style="shape=partialRectangle;html=1;whiteSpace=wrap;connectable=0;overflow=hidden;fillColor=none;top=0;left=0;bottom=0;right=0;pointerEvents=1;" vertex="1" parent="ErytSRjThVYuVtmWc2yD-395">
          <mxGeometry x="114" width="29" height="29" as="geometry">
            <mxRectangle width="29" height="29" as="alternateBounds" />
          </mxGeometry>
        </mxCell>
        <mxCell id="ErytSRjThVYuVtmWc2yD-401" value="1" style="shape=partialRectangle;html=1;whiteSpace=wrap;connectable=0;overflow=hidden;fillColor=none;top=0;left=0;bottom=0;right=0;pointerEvents=1;" vertex="1" parent="ErytSRjThVYuVtmWc2yD-395">
          <mxGeometry x="143" width="28" height="29" as="geometry">
            <mxRectangle width="28" height="29" as="alternateBounds" />
          </mxGeometry>
        </mxCell>
        <mxCell id="ErytSRjThVYuVtmWc2yD-402" value="" style="shape=partialRectangle;html=1;whiteSpace=wrap;connectable=0;overflow=hidden;fillColor=none;top=0;left=0;bottom=0;right=0;pointerEvents=1;" vertex="1" parent="ErytSRjThVYuVtmWc2yD-395">
          <mxGeometry x="171" width="29" height="29" as="geometry">
            <mxRectangle width="29" height="29" as="alternateBounds" />
          </mxGeometry>
        </mxCell>
        <mxCell id="ErytSRjThVYuVtmWc2yD-403" value="" style="shape=partialRectangle;collapsible=0;dropTarget=0;pointerEvents=0;fillColor=none;top=0;left=0;bottom=0;right=0;points=[[0,0.5],[1,0.5]];portConstraint=eastwest;" vertex="1" parent="ErytSRjThVYuVtmWc2yD-362">
          <mxGeometry y="143" width="200" height="28" as="geometry" />
        </mxCell>
        <mxCell id="ErytSRjThVYuVtmWc2yD-404" value="" style="shape=partialRectangle;html=1;whiteSpace=wrap;connectable=0;overflow=hidden;fillColor=none;top=0;left=0;bottom=0;right=0;pointerEvents=1;" vertex="1" parent="ErytSRjThVYuVtmWc2yD-403">
          <mxGeometry width="29" height="28" as="geometry">
            <mxRectangle width="29" height="28" as="alternateBounds" />
          </mxGeometry>
        </mxCell>
        <mxCell id="ErytSRjThVYuVtmWc2yD-405" value="" style="shape=partialRectangle;html=1;whiteSpace=wrap;connectable=0;overflow=hidden;fillColor=none;top=0;left=0;bottom=0;right=0;pointerEvents=1;" vertex="1" parent="ErytSRjThVYuVtmWc2yD-403">
          <mxGeometry x="29" width="28" height="28" as="geometry">
            <mxRectangle width="28" height="28" as="alternateBounds" />
          </mxGeometry>
        </mxCell>
        <mxCell id="ErytSRjThVYuVtmWc2yD-406" value="" style="shape=partialRectangle;html=1;whiteSpace=wrap;connectable=0;overflow=hidden;fillColor=none;top=0;left=0;bottom=0;right=0;pointerEvents=1;" vertex="1" parent="ErytSRjThVYuVtmWc2yD-403">
          <mxGeometry x="57" width="29" height="28" as="geometry">
            <mxRectangle width="29" height="28" as="alternateBounds" />
          </mxGeometry>
        </mxCell>
        <mxCell id="ErytSRjThVYuVtmWc2yD-407" value="1" style="shape=partialRectangle;html=1;whiteSpace=wrap;connectable=0;overflow=hidden;fillColor=none;top=0;left=0;bottom=0;right=0;pointerEvents=1;" vertex="1" parent="ErytSRjThVYuVtmWc2yD-403">
          <mxGeometry x="86" width="28" height="28" as="geometry">
            <mxRectangle width="28" height="28" as="alternateBounds" />
          </mxGeometry>
        </mxCell>
        <mxCell id="ErytSRjThVYuVtmWc2yD-408" value="" style="shape=partialRectangle;html=1;whiteSpace=wrap;connectable=0;overflow=hidden;fillColor=none;top=0;left=0;bottom=0;right=0;pointerEvents=1;" vertex="1" parent="ErytSRjThVYuVtmWc2yD-403">
          <mxGeometry x="114" width="29" height="28" as="geometry">
            <mxRectangle width="29" height="28" as="alternateBounds" />
          </mxGeometry>
        </mxCell>
        <mxCell id="ErytSRjThVYuVtmWc2yD-409" value="" style="shape=partialRectangle;html=1;whiteSpace=wrap;connectable=0;overflow=hidden;fillColor=none;top=0;left=0;bottom=0;right=0;pointerEvents=1;" vertex="1" parent="ErytSRjThVYuVtmWc2yD-403">
          <mxGeometry x="143" width="28" height="28" as="geometry">
            <mxRectangle width="28" height="28" as="alternateBounds" />
          </mxGeometry>
        </mxCell>
        <mxCell id="ErytSRjThVYuVtmWc2yD-410" value="2" style="shape=partialRectangle;html=1;whiteSpace=wrap;connectable=0;overflow=hidden;fillColor=none;top=0;left=0;bottom=0;right=0;pointerEvents=1;" vertex="1" parent="ErytSRjThVYuVtmWc2yD-403">
          <mxGeometry x="171" width="29" height="28" as="geometry">
            <mxRectangle width="29" height="28" as="alternateBounds" />
          </mxGeometry>
        </mxCell>
        <mxCell id="ErytSRjThVYuVtmWc2yD-411" value="" style="shape=partialRectangle;collapsible=0;dropTarget=0;pointerEvents=0;fillColor=none;top=0;left=0;bottom=0;right=0;points=[[0,0.5],[1,0.5]];portConstraint=eastwest;" vertex="1" parent="ErytSRjThVYuVtmWc2yD-362">
          <mxGeometry y="171" width="200" height="29" as="geometry" />
        </mxCell>
        <mxCell id="ErytSRjThVYuVtmWc2yD-412" value="" style="shape=partialRectangle;html=1;whiteSpace=wrap;connectable=0;overflow=hidden;fillColor=none;top=0;left=0;bottom=0;right=0;pointerEvents=1;" vertex="1" parent="ErytSRjThVYuVtmWc2yD-411">
          <mxGeometry width="29" height="29" as="geometry">
            <mxRectangle width="29" height="29" as="alternateBounds" />
          </mxGeometry>
        </mxCell>
        <mxCell id="ErytSRjThVYuVtmWc2yD-413" value="" style="shape=partialRectangle;html=1;whiteSpace=wrap;connectable=0;overflow=hidden;fillColor=none;top=0;left=0;bottom=0;right=0;pointerEvents=1;" vertex="1" parent="ErytSRjThVYuVtmWc2yD-411">
          <mxGeometry x="29" width="28" height="29" as="geometry">
            <mxRectangle width="28" height="29" as="alternateBounds" />
          </mxGeometry>
        </mxCell>
        <mxCell id="ErytSRjThVYuVtmWc2yD-414" value="" style="shape=partialRectangle;html=1;whiteSpace=wrap;connectable=0;overflow=hidden;fillColor=none;top=0;left=0;bottom=0;right=0;pointerEvents=1;" vertex="1" parent="ErytSRjThVYuVtmWc2yD-411">
          <mxGeometry x="57" width="29" height="29" as="geometry">
            <mxRectangle width="29" height="29" as="alternateBounds" />
          </mxGeometry>
        </mxCell>
        <mxCell id="ErytSRjThVYuVtmWc2yD-415" value="2" style="shape=partialRectangle;html=1;whiteSpace=wrap;connectable=0;overflow=hidden;fillColor=none;top=0;left=0;bottom=0;right=0;pointerEvents=1;" vertex="1" parent="ErytSRjThVYuVtmWc2yD-411">
          <mxGeometry x="86" width="28" height="29" as="geometry">
            <mxRectangle width="28" height="29" as="alternateBounds" />
          </mxGeometry>
        </mxCell>
        <mxCell id="ErytSRjThVYuVtmWc2yD-416" value="" style="shape=partialRectangle;html=1;whiteSpace=wrap;connectable=0;overflow=hidden;fillColor=none;top=0;left=0;bottom=0;right=0;pointerEvents=1;" vertex="1" parent="ErytSRjThVYuVtmWc2yD-411">
          <mxGeometry x="114" width="29" height="29" as="geometry">
            <mxRectangle width="29" height="29" as="alternateBounds" />
          </mxGeometry>
        </mxCell>
        <mxCell id="ErytSRjThVYuVtmWc2yD-417" value="" style="shape=partialRectangle;html=1;whiteSpace=wrap;connectable=0;overflow=hidden;fillColor=none;top=0;left=0;bottom=0;right=0;pointerEvents=1;" vertex="1" parent="ErytSRjThVYuVtmWc2yD-411">
          <mxGeometry x="143" width="28" height="29" as="geometry">
            <mxRectangle width="28" height="29" as="alternateBounds" />
          </mxGeometry>
        </mxCell>
        <mxCell id="ErytSRjThVYuVtmWc2yD-418" value="" style="shape=partialRectangle;html=1;whiteSpace=wrap;connectable=0;overflow=hidden;fillColor=none;top=0;left=0;bottom=0;right=0;pointerEvents=1;" vertex="1" parent="ErytSRjThVYuVtmWc2yD-411">
          <mxGeometry x="171" width="29" height="29" as="geometry">
            <mxRectangle width="29" height="29" as="alternateBounds" />
          </mxGeometry>
        </mxCell>
        <mxCell id="ErytSRjThVYuVtmWc2yD-419" value="Nächster Spieler: 1 Gewinner: X&amp;nbsp;" style="rounded=0;whiteSpace=wrap;html=1;" vertex="1" parent="1">
          <mxGeometry x="530" y="510" width="200" height="30" as="geometry" />
        </mxCell>
        <mxCell id="ErytSRjThVYuVtmWc2yD-420" value="" style="shape=table;startSize=0;container=1;collapsible=0;childLayout=tableLayout;" vertex="1" parent="1">
          <mxGeometry x="790" y="300" width="200" height="200" as="geometry" />
        </mxCell>
        <mxCell id="ErytSRjThVYuVtmWc2yD-421" value="" style="shape=partialRectangle;collapsible=0;dropTarget=0;pointerEvents=0;fillColor=none;top=0;left=0;bottom=0;right=0;points=[[0,0.5],[1,0.5]];portConstraint=eastwest;" vertex="1" parent="ErytSRjThVYuVtmWc2yD-420">
          <mxGeometry width="200" height="29" as="geometry" />
        </mxCell>
        <mxCell id="ErytSRjThVYuVtmWc2yD-422" value="" style="shape=partialRectangle;html=1;whiteSpace=wrap;connectable=0;overflow=hidden;fillColor=none;top=0;left=0;bottom=0;right=0;pointerEvents=1;" vertex="1" parent="ErytSRjThVYuVtmWc2yD-421">
          <mxGeometry width="29" height="29" as="geometry">
            <mxRectangle width="29" height="29" as="alternateBounds" />
          </mxGeometry>
        </mxCell>
        <mxCell id="ErytSRjThVYuVtmWc2yD-423" value="" style="shape=partialRectangle;html=1;whiteSpace=wrap;connectable=0;overflow=hidden;fillColor=none;top=0;left=0;bottom=0;right=0;pointerEvents=1;" vertex="1" parent="ErytSRjThVYuVtmWc2yD-421">
          <mxGeometry x="29" width="28" height="29" as="geometry">
            <mxRectangle width="28" height="29" as="alternateBounds" />
          </mxGeometry>
        </mxCell>
        <mxCell id="ErytSRjThVYuVtmWc2yD-424" value="" style="shape=partialRectangle;html=1;whiteSpace=wrap;connectable=0;overflow=hidden;fillColor=none;top=0;left=0;bottom=0;right=0;pointerEvents=1;" vertex="1" parent="ErytSRjThVYuVtmWc2yD-421">
          <mxGeometry x="57" width="29" height="29" as="geometry">
            <mxRectangle width="29" height="29" as="alternateBounds" />
          </mxGeometry>
        </mxCell>
        <mxCell id="ErytSRjThVYuVtmWc2yD-425" value="" style="shape=partialRectangle;html=1;whiteSpace=wrap;connectable=0;overflow=hidden;fillColor=none;top=0;left=0;bottom=0;right=0;pointerEvents=1;" vertex="1" parent="ErytSRjThVYuVtmWc2yD-421">
          <mxGeometry x="86" width="28" height="29" as="geometry">
            <mxRectangle width="28" height="29" as="alternateBounds" />
          </mxGeometry>
        </mxCell>
        <mxCell id="ErytSRjThVYuVtmWc2yD-426" value="" style="shape=partialRectangle;html=1;whiteSpace=wrap;connectable=0;overflow=hidden;fillColor=none;top=0;left=0;bottom=0;right=0;pointerEvents=1;" vertex="1" parent="ErytSRjThVYuVtmWc2yD-421">
          <mxGeometry x="114" width="29" height="29" as="geometry">
            <mxRectangle width="29" height="29" as="alternateBounds" />
          </mxGeometry>
        </mxCell>
        <mxCell id="ErytSRjThVYuVtmWc2yD-427" value="" style="shape=partialRectangle;html=1;whiteSpace=wrap;connectable=0;overflow=hidden;fillColor=none;top=0;left=0;bottom=0;right=0;pointerEvents=1;" vertex="1" parent="ErytSRjThVYuVtmWc2yD-421">
          <mxGeometry x="143" width="28" height="29" as="geometry">
            <mxRectangle width="28" height="29" as="alternateBounds" />
          </mxGeometry>
        </mxCell>
        <mxCell id="ErytSRjThVYuVtmWc2yD-428" value="" style="shape=partialRectangle;html=1;whiteSpace=wrap;connectable=0;overflow=hidden;fillColor=none;top=0;left=0;bottom=0;right=0;pointerEvents=1;" vertex="1" parent="ErytSRjThVYuVtmWc2yD-421">
          <mxGeometry x="171" width="29" height="29" as="geometry">
            <mxRectangle width="29" height="29" as="alternateBounds" />
          </mxGeometry>
        </mxCell>
        <mxCell id="ErytSRjThVYuVtmWc2yD-429" value="" style="shape=partialRectangle;collapsible=0;dropTarget=0;pointerEvents=0;fillColor=none;top=0;left=0;bottom=0;right=0;points=[[0,0.5],[1,0.5]];portConstraint=eastwest;" vertex="1" parent="ErytSRjThVYuVtmWc2yD-420">
          <mxGeometry y="29" width="200" height="28" as="geometry" />
        </mxCell>
        <mxCell id="ErytSRjThVYuVtmWc2yD-430" value="" style="shape=partialRectangle;html=1;whiteSpace=wrap;connectable=0;overflow=hidden;fillColor=none;top=0;left=0;bottom=0;right=0;pointerEvents=1;" vertex="1" parent="ErytSRjThVYuVtmWc2yD-429">
          <mxGeometry width="29" height="28" as="geometry">
            <mxRectangle width="29" height="28" as="alternateBounds" />
          </mxGeometry>
        </mxCell>
        <mxCell id="ErytSRjThVYuVtmWc2yD-431" value="" style="shape=partialRectangle;html=1;whiteSpace=wrap;connectable=0;overflow=hidden;fillColor=none;top=0;left=0;bottom=0;right=0;pointerEvents=1;" vertex="1" parent="ErytSRjThVYuVtmWc2yD-429">
          <mxGeometry x="29" width="28" height="28" as="geometry">
            <mxRectangle width="28" height="28" as="alternateBounds" />
          </mxGeometry>
        </mxCell>
        <mxCell id="ErytSRjThVYuVtmWc2yD-432" value="" style="shape=partialRectangle;html=1;whiteSpace=wrap;connectable=0;overflow=hidden;fillColor=none;top=0;left=0;bottom=0;right=0;pointerEvents=1;" vertex="1" parent="ErytSRjThVYuVtmWc2yD-429">
          <mxGeometry x="57" width="29" height="28" as="geometry">
            <mxRectangle width="29" height="28" as="alternateBounds" />
          </mxGeometry>
        </mxCell>
        <mxCell id="ErytSRjThVYuVtmWc2yD-433" value="2" style="shape=partialRectangle;html=1;whiteSpace=wrap;connectable=0;overflow=hidden;fillColor=none;top=0;left=0;bottom=0;right=0;pointerEvents=1;" vertex="1" parent="ErytSRjThVYuVtmWc2yD-429">
          <mxGeometry x="86" width="28" height="28" as="geometry">
            <mxRectangle width="28" height="28" as="alternateBounds" />
          </mxGeometry>
        </mxCell>
        <mxCell id="ErytSRjThVYuVtmWc2yD-434" value="" style="shape=partialRectangle;html=1;whiteSpace=wrap;connectable=0;overflow=hidden;fillColor=none;top=0;left=0;bottom=0;right=0;pointerEvents=1;" vertex="1" parent="ErytSRjThVYuVtmWc2yD-429">
          <mxGeometry x="114" width="29" height="28" as="geometry">
            <mxRectangle width="29" height="28" as="alternateBounds" />
          </mxGeometry>
        </mxCell>
        <mxCell id="ErytSRjThVYuVtmWc2yD-435" value="" style="shape=partialRectangle;html=1;whiteSpace=wrap;connectable=0;overflow=hidden;fillColor=none;top=0;left=0;bottom=0;right=0;pointerEvents=1;" vertex="1" parent="ErytSRjThVYuVtmWc2yD-429">
          <mxGeometry x="143" width="28" height="28" as="geometry">
            <mxRectangle width="28" height="28" as="alternateBounds" />
          </mxGeometry>
        </mxCell>
        <mxCell id="ErytSRjThVYuVtmWc2yD-436" value="" style="shape=partialRectangle;html=1;whiteSpace=wrap;connectable=0;overflow=hidden;fillColor=none;top=0;left=0;bottom=0;right=0;pointerEvents=1;" vertex="1" parent="ErytSRjThVYuVtmWc2yD-429">
          <mxGeometry x="171" width="29" height="28" as="geometry">
            <mxRectangle width="29" height="28" as="alternateBounds" />
          </mxGeometry>
        </mxCell>
        <mxCell id="ErytSRjThVYuVtmWc2yD-437" value="" style="shape=partialRectangle;collapsible=0;dropTarget=0;pointerEvents=0;fillColor=none;top=0;left=0;bottom=0;right=0;points=[[0,0.5],[1,0.5]];portConstraint=eastwest;" vertex="1" parent="ErytSRjThVYuVtmWc2yD-420">
          <mxGeometry y="57" width="200" height="29" as="geometry" />
        </mxCell>
        <mxCell id="ErytSRjThVYuVtmWc2yD-438" value="" style="shape=partialRectangle;html=1;whiteSpace=wrap;connectable=0;overflow=hidden;fillColor=none;top=0;left=0;bottom=0;right=0;pointerEvents=1;" vertex="1" parent="ErytSRjThVYuVtmWc2yD-437">
          <mxGeometry width="29" height="29" as="geometry">
            <mxRectangle width="29" height="29" as="alternateBounds" />
          </mxGeometry>
        </mxCell>
        <mxCell id="ErytSRjThVYuVtmWc2yD-439" value="" style="shape=partialRectangle;html=1;whiteSpace=wrap;connectable=0;overflow=hidden;fillColor=none;top=0;left=0;bottom=0;right=0;pointerEvents=1;" vertex="1" parent="ErytSRjThVYuVtmWc2yD-437">
          <mxGeometry x="29" width="28" height="29" as="geometry">
            <mxRectangle width="28" height="29" as="alternateBounds" />
          </mxGeometry>
        </mxCell>
        <mxCell id="ErytSRjThVYuVtmWc2yD-440" value="2" style="shape=partialRectangle;html=1;whiteSpace=wrap;connectable=0;overflow=hidden;fillColor=none;top=0;left=0;bottom=0;right=0;pointerEvents=1;" vertex="1" parent="ErytSRjThVYuVtmWc2yD-437">
          <mxGeometry x="57" width="29" height="29" as="geometry">
            <mxRectangle width="29" height="29" as="alternateBounds" />
          </mxGeometry>
        </mxCell>
        <mxCell id="ErytSRjThVYuVtmWc2yD-441" value="1" style="shape=partialRectangle;html=1;whiteSpace=wrap;connectable=0;overflow=hidden;fillColor=none;top=0;left=0;bottom=0;right=0;pointerEvents=1;" vertex="1" parent="ErytSRjThVYuVtmWc2yD-437">
          <mxGeometry x="86" width="28" height="29" as="geometry">
            <mxRectangle width="28" height="29" as="alternateBounds" />
          </mxGeometry>
        </mxCell>
        <mxCell id="ErytSRjThVYuVtmWc2yD-442" value="2" style="shape=partialRectangle;html=1;whiteSpace=wrap;connectable=0;overflow=hidden;fillColor=none;top=0;left=0;bottom=0;right=0;pointerEvents=1;" vertex="1" parent="ErytSRjThVYuVtmWc2yD-437">
          <mxGeometry x="114" width="29" height="29" as="geometry">
            <mxRectangle width="29" height="29" as="alternateBounds" />
          </mxGeometry>
        </mxCell>
        <mxCell id="ErytSRjThVYuVtmWc2yD-443" value="" style="shape=partialRectangle;html=1;whiteSpace=wrap;connectable=0;overflow=hidden;fillColor=none;top=0;left=0;bottom=0;right=0;pointerEvents=1;" vertex="1" parent="ErytSRjThVYuVtmWc2yD-437">
          <mxGeometry x="143" width="28" height="29" as="geometry">
            <mxRectangle width="28" height="29" as="alternateBounds" />
          </mxGeometry>
        </mxCell>
        <mxCell id="ErytSRjThVYuVtmWc2yD-444" value="" style="shape=partialRectangle;html=1;whiteSpace=wrap;connectable=0;overflow=hidden;fillColor=none;top=0;left=0;bottom=0;right=0;pointerEvents=1;" vertex="1" parent="ErytSRjThVYuVtmWc2yD-437">
          <mxGeometry x="171" width="29" height="29" as="geometry">
            <mxRectangle width="29" height="29" as="alternateBounds" />
          </mxGeometry>
        </mxCell>
        <mxCell id="ErytSRjThVYuVtmWc2yD-445" value="" style="shape=partialRectangle;collapsible=0;dropTarget=0;pointerEvents=0;fillColor=none;top=0;left=0;bottom=0;right=0;points=[[0,0.5],[1,0.5]];portConstraint=eastwest;" vertex="1" parent="ErytSRjThVYuVtmWc2yD-420">
          <mxGeometry y="86" width="200" height="28" as="geometry" />
        </mxCell>
        <mxCell id="ErytSRjThVYuVtmWc2yD-446" value="" style="shape=partialRectangle;html=1;whiteSpace=wrap;connectable=0;overflow=hidden;fillColor=none;top=0;left=0;bottom=0;right=0;pointerEvents=1;" vertex="1" parent="ErytSRjThVYuVtmWc2yD-445">
          <mxGeometry width="29" height="28" as="geometry">
            <mxRectangle width="29" height="28" as="alternateBounds" />
          </mxGeometry>
        </mxCell>
        <mxCell id="ErytSRjThVYuVtmWc2yD-447" value="2" style="shape=partialRectangle;html=1;whiteSpace=wrap;connectable=0;overflow=hidden;fillColor=none;top=0;left=0;bottom=0;right=0;pointerEvents=1;" vertex="1" parent="ErytSRjThVYuVtmWc2yD-445">
          <mxGeometry x="29" width="28" height="28" as="geometry">
            <mxRectangle width="28" height="28" as="alternateBounds" />
          </mxGeometry>
        </mxCell>
        <mxCell id="ErytSRjThVYuVtmWc2yD-448" value="" style="shape=partialRectangle;html=1;whiteSpace=wrap;connectable=0;overflow=hidden;fillColor=none;top=0;left=0;bottom=0;right=0;pointerEvents=1;" vertex="1" parent="ErytSRjThVYuVtmWc2yD-445">
          <mxGeometry x="57" width="29" height="28" as="geometry">
            <mxRectangle width="29" height="28" as="alternateBounds" />
          </mxGeometry>
        </mxCell>
        <mxCell id="ErytSRjThVYuVtmWc2yD-449" value="1" style="shape=partialRectangle;html=1;whiteSpace=wrap;connectable=0;overflow=hidden;fillColor=none;top=0;left=0;bottom=0;right=0;pointerEvents=1;" vertex="1" parent="ErytSRjThVYuVtmWc2yD-445">
          <mxGeometry x="86" width="28" height="28" as="geometry">
            <mxRectangle width="28" height="28" as="alternateBounds" />
          </mxGeometry>
        </mxCell>
        <mxCell id="ErytSRjThVYuVtmWc2yD-450" value="1" style="shape=partialRectangle;html=1;whiteSpace=wrap;connectable=0;overflow=hidden;fillColor=none;top=0;left=0;bottom=0;right=0;pointerEvents=1;" vertex="1" parent="ErytSRjThVYuVtmWc2yD-445">
          <mxGeometry x="114" width="29" height="28" as="geometry">
            <mxRectangle width="29" height="28" as="alternateBounds" />
          </mxGeometry>
        </mxCell>
        <mxCell id="ErytSRjThVYuVtmWc2yD-451" value="" style="shape=partialRectangle;html=1;whiteSpace=wrap;connectable=0;overflow=hidden;fillColor=none;top=0;left=0;bottom=0;right=0;pointerEvents=1;" vertex="1" parent="ErytSRjThVYuVtmWc2yD-445">
          <mxGeometry x="143" width="28" height="28" as="geometry">
            <mxRectangle width="28" height="28" as="alternateBounds" />
          </mxGeometry>
        </mxCell>
        <mxCell id="ErytSRjThVYuVtmWc2yD-452" value="" style="shape=partialRectangle;html=1;whiteSpace=wrap;connectable=0;overflow=hidden;fillColor=none;top=0;left=0;bottom=0;right=0;pointerEvents=1;" vertex="1" parent="ErytSRjThVYuVtmWc2yD-445">
          <mxGeometry x="171" width="29" height="28" as="geometry">
            <mxRectangle width="29" height="28" as="alternateBounds" />
          </mxGeometry>
        </mxCell>
        <mxCell id="ErytSRjThVYuVtmWc2yD-453" value="" style="shape=partialRectangle;collapsible=0;dropTarget=0;pointerEvents=0;fillColor=none;top=0;left=0;bottom=0;right=0;points=[[0,0.5],[1,0.5]];portConstraint=eastwest;" vertex="1" parent="ErytSRjThVYuVtmWc2yD-420">
          <mxGeometry y="114" width="200" height="29" as="geometry" />
        </mxCell>
        <mxCell id="ErytSRjThVYuVtmWc2yD-454" value="" style="shape=partialRectangle;html=1;whiteSpace=wrap;connectable=0;overflow=hidden;fillColor=none;top=0;left=0;bottom=0;right=0;pointerEvents=1;" vertex="1" parent="ErytSRjThVYuVtmWc2yD-453">
          <mxGeometry width="29" height="29" as="geometry">
            <mxRectangle width="29" height="29" as="alternateBounds" />
          </mxGeometry>
        </mxCell>
        <mxCell id="ErytSRjThVYuVtmWc2yD-455" value="" style="shape=partialRectangle;html=1;whiteSpace=wrap;connectable=0;overflow=hidden;fillColor=none;top=0;left=0;bottom=0;right=0;pointerEvents=1;" vertex="1" parent="ErytSRjThVYuVtmWc2yD-453">
          <mxGeometry x="29" width="28" height="29" as="geometry">
            <mxRectangle width="28" height="29" as="alternateBounds" />
          </mxGeometry>
        </mxCell>
        <mxCell id="ErytSRjThVYuVtmWc2yD-456" value="" style="shape=partialRectangle;html=1;whiteSpace=wrap;connectable=0;overflow=hidden;fillColor=none;top=0;left=0;bottom=0;right=0;pointerEvents=1;" vertex="1" parent="ErytSRjThVYuVtmWc2yD-453">
          <mxGeometry x="57" width="29" height="29" as="geometry">
            <mxRectangle width="29" height="29" as="alternateBounds" />
          </mxGeometry>
        </mxCell>
        <mxCell id="ErytSRjThVYuVtmWc2yD-457" value="1" style="shape=partialRectangle;html=1;whiteSpace=wrap;connectable=0;overflow=hidden;fillColor=none;top=0;left=0;bottom=0;right=0;pointerEvents=1;" vertex="1" parent="ErytSRjThVYuVtmWc2yD-453">
          <mxGeometry x="86" width="28" height="29" as="geometry">
            <mxRectangle width="28" height="29" as="alternateBounds" />
          </mxGeometry>
        </mxCell>
        <mxCell id="ErytSRjThVYuVtmWc2yD-458" value="" style="shape=partialRectangle;html=1;whiteSpace=wrap;connectable=0;overflow=hidden;fillColor=none;top=0;left=0;bottom=0;right=0;pointerEvents=1;" vertex="1" parent="ErytSRjThVYuVtmWc2yD-453">
          <mxGeometry x="114" width="29" height="29" as="geometry">
            <mxRectangle width="29" height="29" as="alternateBounds" />
          </mxGeometry>
        </mxCell>
        <mxCell id="ErytSRjThVYuVtmWc2yD-459" value="1" style="shape=partialRectangle;html=1;whiteSpace=wrap;connectable=0;overflow=hidden;fillColor=none;top=0;left=0;bottom=0;right=0;pointerEvents=1;" vertex="1" parent="ErytSRjThVYuVtmWc2yD-453">
          <mxGeometry x="143" width="28" height="29" as="geometry">
            <mxRectangle width="28" height="29" as="alternateBounds" />
          </mxGeometry>
        </mxCell>
        <mxCell id="ErytSRjThVYuVtmWc2yD-460" value="" style="shape=partialRectangle;html=1;whiteSpace=wrap;connectable=0;overflow=hidden;fillColor=none;top=0;left=0;bottom=0;right=0;pointerEvents=1;" vertex="1" parent="ErytSRjThVYuVtmWc2yD-453">
          <mxGeometry x="171" width="29" height="29" as="geometry">
            <mxRectangle width="29" height="29" as="alternateBounds" />
          </mxGeometry>
        </mxCell>
        <mxCell id="ErytSRjThVYuVtmWc2yD-461" value="" style="shape=partialRectangle;collapsible=0;dropTarget=0;pointerEvents=0;fillColor=none;top=0;left=0;bottom=0;right=0;points=[[0,0.5],[1,0.5]];portConstraint=eastwest;" vertex="1" parent="ErytSRjThVYuVtmWc2yD-420">
          <mxGeometry y="143" width="200" height="28" as="geometry" />
        </mxCell>
        <mxCell id="ErytSRjThVYuVtmWc2yD-462" value="" style="shape=partialRectangle;html=1;whiteSpace=wrap;connectable=0;overflow=hidden;fillColor=none;top=0;left=0;bottom=0;right=0;pointerEvents=1;" vertex="1" parent="ErytSRjThVYuVtmWc2yD-461">
          <mxGeometry width="29" height="28" as="geometry">
            <mxRectangle width="29" height="28" as="alternateBounds" />
          </mxGeometry>
        </mxCell>
        <mxCell id="ErytSRjThVYuVtmWc2yD-463" value="" style="shape=partialRectangle;html=1;whiteSpace=wrap;connectable=0;overflow=hidden;fillColor=none;top=0;left=0;bottom=0;right=0;pointerEvents=1;" vertex="1" parent="ErytSRjThVYuVtmWc2yD-461">
          <mxGeometry x="29" width="28" height="28" as="geometry">
            <mxRectangle width="28" height="28" as="alternateBounds" />
          </mxGeometry>
        </mxCell>
        <mxCell id="ErytSRjThVYuVtmWc2yD-464" value="" style="shape=partialRectangle;html=1;whiteSpace=wrap;connectable=0;overflow=hidden;fillColor=none;top=0;left=0;bottom=0;right=0;pointerEvents=1;" vertex="1" parent="ErytSRjThVYuVtmWc2yD-461">
          <mxGeometry x="57" width="29" height="28" as="geometry">
            <mxRectangle width="29" height="28" as="alternateBounds" />
          </mxGeometry>
        </mxCell>
        <mxCell id="ErytSRjThVYuVtmWc2yD-465" value="1" style="shape=partialRectangle;html=1;whiteSpace=wrap;connectable=0;overflow=hidden;fillColor=none;top=0;left=0;bottom=0;right=0;pointerEvents=1;" vertex="1" parent="ErytSRjThVYuVtmWc2yD-461">
          <mxGeometry x="86" width="28" height="28" as="geometry">
            <mxRectangle width="28" height="28" as="alternateBounds" />
          </mxGeometry>
        </mxCell>
        <mxCell id="ErytSRjThVYuVtmWc2yD-466" value="" style="shape=partialRectangle;html=1;whiteSpace=wrap;connectable=0;overflow=hidden;fillColor=none;top=0;left=0;bottom=0;right=0;pointerEvents=1;" vertex="1" parent="ErytSRjThVYuVtmWc2yD-461">
          <mxGeometry x="114" width="29" height="28" as="geometry">
            <mxRectangle width="29" height="28" as="alternateBounds" />
          </mxGeometry>
        </mxCell>
        <mxCell id="ErytSRjThVYuVtmWc2yD-467" value="" style="shape=partialRectangle;html=1;whiteSpace=wrap;connectable=0;overflow=hidden;fillColor=none;top=0;left=0;bottom=0;right=0;pointerEvents=1;" vertex="1" parent="ErytSRjThVYuVtmWc2yD-461">
          <mxGeometry x="143" width="28" height="28" as="geometry">
            <mxRectangle width="28" height="28" as="alternateBounds" />
          </mxGeometry>
        </mxCell>
        <mxCell id="ErytSRjThVYuVtmWc2yD-468" value="" style="shape=partialRectangle;html=1;whiteSpace=wrap;connectable=0;overflow=hidden;fillColor=none;top=0;left=0;bottom=0;right=0;pointerEvents=1;" vertex="1" parent="ErytSRjThVYuVtmWc2yD-461">
          <mxGeometry x="171" width="29" height="28" as="geometry">
            <mxRectangle width="29" height="28" as="alternateBounds" />
          </mxGeometry>
        </mxCell>
        <mxCell id="ErytSRjThVYuVtmWc2yD-469" value="" style="shape=partialRectangle;collapsible=0;dropTarget=0;pointerEvents=0;fillColor=none;top=0;left=0;bottom=0;right=0;points=[[0,0.5],[1,0.5]];portConstraint=eastwest;" vertex="1" parent="ErytSRjThVYuVtmWc2yD-420">
          <mxGeometry y="171" width="200" height="29" as="geometry" />
        </mxCell>
        <mxCell id="ErytSRjThVYuVtmWc2yD-470" value="" style="shape=partialRectangle;html=1;whiteSpace=wrap;connectable=0;overflow=hidden;fillColor=none;top=0;left=0;bottom=0;right=0;pointerEvents=1;" vertex="1" parent="ErytSRjThVYuVtmWc2yD-469">
          <mxGeometry width="29" height="29" as="geometry">
            <mxRectangle width="29" height="29" as="alternateBounds" />
          </mxGeometry>
        </mxCell>
        <mxCell id="ErytSRjThVYuVtmWc2yD-471" value="" style="shape=partialRectangle;html=1;whiteSpace=wrap;connectable=0;overflow=hidden;fillColor=none;top=0;left=0;bottom=0;right=0;pointerEvents=1;" vertex="1" parent="ErytSRjThVYuVtmWc2yD-469">
          <mxGeometry x="29" width="28" height="29" as="geometry">
            <mxRectangle width="28" height="29" as="alternateBounds" />
          </mxGeometry>
        </mxCell>
        <mxCell id="ErytSRjThVYuVtmWc2yD-472" value="" style="shape=partialRectangle;html=1;whiteSpace=wrap;connectable=0;overflow=hidden;fillColor=none;top=0;left=0;bottom=0;right=0;pointerEvents=1;" vertex="1" parent="ErytSRjThVYuVtmWc2yD-469">
          <mxGeometry x="57" width="29" height="29" as="geometry">
            <mxRectangle width="29" height="29" as="alternateBounds" />
          </mxGeometry>
        </mxCell>
        <mxCell id="ErytSRjThVYuVtmWc2yD-473" value="2" style="shape=partialRectangle;html=1;whiteSpace=wrap;connectable=0;overflow=hidden;fillColor=none;top=0;left=0;bottom=0;right=0;pointerEvents=1;" vertex="1" parent="ErytSRjThVYuVtmWc2yD-469">
          <mxGeometry x="86" width="28" height="29" as="geometry">
            <mxRectangle width="28" height="29" as="alternateBounds" />
          </mxGeometry>
        </mxCell>
        <mxCell id="ErytSRjThVYuVtmWc2yD-474" value="2" style="shape=partialRectangle;html=1;whiteSpace=wrap;connectable=0;overflow=hidden;fillColor=none;top=0;left=0;bottom=0;right=0;pointerEvents=1;" vertex="1" parent="ErytSRjThVYuVtmWc2yD-469">
          <mxGeometry x="114" width="29" height="29" as="geometry">
            <mxRectangle width="29" height="29" as="alternateBounds" />
          </mxGeometry>
        </mxCell>
        <mxCell id="ErytSRjThVYuVtmWc2yD-475" value="" style="shape=partialRectangle;html=1;whiteSpace=wrap;connectable=0;overflow=hidden;fillColor=none;top=0;left=0;bottom=0;right=0;pointerEvents=1;" vertex="1" parent="ErytSRjThVYuVtmWc2yD-469">
          <mxGeometry x="143" width="28" height="29" as="geometry">
            <mxRectangle width="28" height="29" as="alternateBounds" />
          </mxGeometry>
        </mxCell>
        <mxCell id="ErytSRjThVYuVtmWc2yD-476" value="" style="shape=partialRectangle;html=1;whiteSpace=wrap;connectable=0;overflow=hidden;fillColor=none;top=0;left=0;bottom=0;right=0;pointerEvents=1;" vertex="1" parent="ErytSRjThVYuVtmWc2yD-469">
          <mxGeometry x="171" width="29" height="29" as="geometry">
            <mxRectangle width="29" height="29" as="alternateBounds" />
          </mxGeometry>
        </mxCell>
        <mxCell id="ErytSRjThVYuVtmWc2yD-477" value="Nächster Spieler: 1 Gewinner: X&amp;nbsp;" style="rounded=0;whiteSpace=wrap;html=1;" vertex="1" parent="1">
          <mxGeometry x="790" y="500" width="200" height="30" as="geometry" />
        </mxCell>
        <mxCell id="ErytSRjThVYuVtmWc2yD-478" value="" style="shape=table;startSize=0;container=1;collapsible=0;childLayout=tableLayout;" vertex="1" parent="1">
          <mxGeometry x="1040" y="300" width="200" height="200" as="geometry" />
        </mxCell>
        <mxCell id="ErytSRjThVYuVtmWc2yD-479" value="" style="shape=partialRectangle;collapsible=0;dropTarget=0;pointerEvents=0;fillColor=none;top=0;left=0;bottom=0;right=0;points=[[0,0.5],[1,0.5]];portConstraint=eastwest;" vertex="1" parent="ErytSRjThVYuVtmWc2yD-478">
          <mxGeometry width="200" height="29" as="geometry" />
        </mxCell>
        <mxCell id="ErytSRjThVYuVtmWc2yD-480" value="" style="shape=partialRectangle;html=1;whiteSpace=wrap;connectable=0;overflow=hidden;fillColor=none;top=0;left=0;bottom=0;right=0;pointerEvents=1;" vertex="1" parent="ErytSRjThVYuVtmWc2yD-479">
          <mxGeometry width="29" height="29" as="geometry">
            <mxRectangle width="29" height="29" as="alternateBounds" />
          </mxGeometry>
        </mxCell>
        <mxCell id="ErytSRjThVYuVtmWc2yD-481" value="" style="shape=partialRectangle;html=1;whiteSpace=wrap;connectable=0;overflow=hidden;fillColor=none;top=0;left=0;bottom=0;right=0;pointerEvents=1;" vertex="1" parent="ErytSRjThVYuVtmWc2yD-479">
          <mxGeometry x="29" width="28" height="29" as="geometry">
            <mxRectangle width="28" height="29" as="alternateBounds" />
          </mxGeometry>
        </mxCell>
        <mxCell id="ErytSRjThVYuVtmWc2yD-482" value="" style="shape=partialRectangle;html=1;whiteSpace=wrap;connectable=0;overflow=hidden;fillColor=none;top=0;left=0;bottom=0;right=0;pointerEvents=1;" vertex="1" parent="ErytSRjThVYuVtmWc2yD-479">
          <mxGeometry x="57" width="29" height="29" as="geometry">
            <mxRectangle width="29" height="29" as="alternateBounds" />
          </mxGeometry>
        </mxCell>
        <mxCell id="ErytSRjThVYuVtmWc2yD-483" value="" style="shape=partialRectangle;html=1;whiteSpace=wrap;connectable=0;overflow=hidden;fillColor=none;top=0;left=0;bottom=0;right=0;pointerEvents=1;" vertex="1" parent="ErytSRjThVYuVtmWc2yD-479">
          <mxGeometry x="86" width="28" height="29" as="geometry">
            <mxRectangle width="28" height="29" as="alternateBounds" />
          </mxGeometry>
        </mxCell>
        <mxCell id="ErytSRjThVYuVtmWc2yD-484" value="" style="shape=partialRectangle;html=1;whiteSpace=wrap;connectable=0;overflow=hidden;fillColor=none;top=0;left=0;bottom=0;right=0;pointerEvents=1;" vertex="1" parent="ErytSRjThVYuVtmWc2yD-479">
          <mxGeometry x="114" width="29" height="29" as="geometry">
            <mxRectangle width="29" height="29" as="alternateBounds" />
          </mxGeometry>
        </mxCell>
        <mxCell id="ErytSRjThVYuVtmWc2yD-485" value="" style="shape=partialRectangle;html=1;whiteSpace=wrap;connectable=0;overflow=hidden;fillColor=none;top=0;left=0;bottom=0;right=0;pointerEvents=1;" vertex="1" parent="ErytSRjThVYuVtmWc2yD-479">
          <mxGeometry x="143" width="28" height="29" as="geometry">
            <mxRectangle width="28" height="29" as="alternateBounds" />
          </mxGeometry>
        </mxCell>
        <mxCell id="ErytSRjThVYuVtmWc2yD-486" value="" style="shape=partialRectangle;html=1;whiteSpace=wrap;connectable=0;overflow=hidden;fillColor=none;top=0;left=0;bottom=0;right=0;pointerEvents=1;" vertex="1" parent="ErytSRjThVYuVtmWc2yD-479">
          <mxGeometry x="171" width="29" height="29" as="geometry">
            <mxRectangle width="29" height="29" as="alternateBounds" />
          </mxGeometry>
        </mxCell>
        <mxCell id="ErytSRjThVYuVtmWc2yD-487" value="" style="shape=partialRectangle;collapsible=0;dropTarget=0;pointerEvents=0;fillColor=none;top=0;left=0;bottom=0;right=0;points=[[0,0.5],[1,0.5]];portConstraint=eastwest;" vertex="1" parent="ErytSRjThVYuVtmWc2yD-478">
          <mxGeometry y="29" width="200" height="28" as="geometry" />
        </mxCell>
        <mxCell id="ErytSRjThVYuVtmWc2yD-488" value="" style="shape=partialRectangle;html=1;whiteSpace=wrap;connectable=0;overflow=hidden;fillColor=none;top=0;left=0;bottom=0;right=0;pointerEvents=1;" vertex="1" parent="ErytSRjThVYuVtmWc2yD-487">
          <mxGeometry width="29" height="28" as="geometry">
            <mxRectangle width="29" height="28" as="alternateBounds" />
          </mxGeometry>
        </mxCell>
        <mxCell id="ErytSRjThVYuVtmWc2yD-489" value="" style="shape=partialRectangle;html=1;whiteSpace=wrap;connectable=0;overflow=hidden;fillColor=none;top=0;left=0;bottom=0;right=0;pointerEvents=1;" vertex="1" parent="ErytSRjThVYuVtmWc2yD-487">
          <mxGeometry x="29" width="28" height="28" as="geometry">
            <mxRectangle width="28" height="28" as="alternateBounds" />
          </mxGeometry>
        </mxCell>
        <mxCell id="ErytSRjThVYuVtmWc2yD-490" value="" style="shape=partialRectangle;html=1;whiteSpace=wrap;connectable=0;overflow=hidden;fillColor=none;top=0;left=0;bottom=0;right=0;pointerEvents=1;" vertex="1" parent="ErytSRjThVYuVtmWc2yD-487">
          <mxGeometry x="57" width="29" height="28" as="geometry">
            <mxRectangle width="29" height="28" as="alternateBounds" />
          </mxGeometry>
        </mxCell>
        <mxCell id="ErytSRjThVYuVtmWc2yD-491" value="2" style="shape=partialRectangle;html=1;whiteSpace=wrap;connectable=0;overflow=hidden;fillColor=none;top=0;left=0;bottom=0;right=0;pointerEvents=1;" vertex="1" parent="ErytSRjThVYuVtmWc2yD-487">
          <mxGeometry x="86" width="28" height="28" as="geometry">
            <mxRectangle width="28" height="28" as="alternateBounds" />
          </mxGeometry>
        </mxCell>
        <mxCell id="ErytSRjThVYuVtmWc2yD-492" value="" style="shape=partialRectangle;html=1;whiteSpace=wrap;connectable=0;overflow=hidden;fillColor=none;top=0;left=0;bottom=0;right=0;pointerEvents=1;" vertex="1" parent="ErytSRjThVYuVtmWc2yD-487">
          <mxGeometry x="114" width="29" height="28" as="geometry">
            <mxRectangle width="29" height="28" as="alternateBounds" />
          </mxGeometry>
        </mxCell>
        <mxCell id="ErytSRjThVYuVtmWc2yD-493" value="" style="shape=partialRectangle;html=1;whiteSpace=wrap;connectable=0;overflow=hidden;fillColor=none;top=0;left=0;bottom=0;right=0;pointerEvents=1;" vertex="1" parent="ErytSRjThVYuVtmWc2yD-487">
          <mxGeometry x="143" width="28" height="28" as="geometry">
            <mxRectangle width="28" height="28" as="alternateBounds" />
          </mxGeometry>
        </mxCell>
        <mxCell id="ErytSRjThVYuVtmWc2yD-494" value="" style="shape=partialRectangle;html=1;whiteSpace=wrap;connectable=0;overflow=hidden;fillColor=none;top=0;left=0;bottom=0;right=0;pointerEvents=1;" vertex="1" parent="ErytSRjThVYuVtmWc2yD-487">
          <mxGeometry x="171" width="29" height="28" as="geometry">
            <mxRectangle width="29" height="28" as="alternateBounds" />
          </mxGeometry>
        </mxCell>
        <mxCell id="ErytSRjThVYuVtmWc2yD-495" value="" style="shape=partialRectangle;collapsible=0;dropTarget=0;pointerEvents=0;fillColor=none;top=0;left=0;bottom=0;right=0;points=[[0,0.5],[1,0.5]];portConstraint=eastwest;" vertex="1" parent="ErytSRjThVYuVtmWc2yD-478">
          <mxGeometry y="57" width="200" height="29" as="geometry" />
        </mxCell>
        <mxCell id="ErytSRjThVYuVtmWc2yD-496" value="" style="shape=partialRectangle;html=1;whiteSpace=wrap;connectable=0;overflow=hidden;fillColor=none;top=0;left=0;bottom=0;right=0;pointerEvents=1;" vertex="1" parent="ErytSRjThVYuVtmWc2yD-495">
          <mxGeometry width="29" height="29" as="geometry">
            <mxRectangle width="29" height="29" as="alternateBounds" />
          </mxGeometry>
        </mxCell>
        <mxCell id="ErytSRjThVYuVtmWc2yD-497" value="" style="shape=partialRectangle;html=1;whiteSpace=wrap;connectable=0;overflow=hidden;fillColor=none;top=0;left=0;bottom=0;right=0;pointerEvents=1;" vertex="1" parent="ErytSRjThVYuVtmWc2yD-495">
          <mxGeometry x="29" width="28" height="29" as="geometry">
            <mxRectangle width="28" height="29" as="alternateBounds" />
          </mxGeometry>
        </mxCell>
        <mxCell id="ErytSRjThVYuVtmWc2yD-498" value="2" style="shape=partialRectangle;html=1;whiteSpace=wrap;connectable=0;overflow=hidden;fillColor=none;top=0;left=0;bottom=0;right=0;pointerEvents=1;" vertex="1" parent="ErytSRjThVYuVtmWc2yD-495">
          <mxGeometry x="57" width="29" height="29" as="geometry">
            <mxRectangle width="29" height="29" as="alternateBounds" />
          </mxGeometry>
        </mxCell>
        <mxCell id="ErytSRjThVYuVtmWc2yD-499" value="1" style="shape=partialRectangle;html=1;whiteSpace=wrap;connectable=0;overflow=hidden;fillColor=none;top=0;left=0;bottom=0;right=0;pointerEvents=1;" vertex="1" parent="ErytSRjThVYuVtmWc2yD-495">
          <mxGeometry x="86" width="28" height="29" as="geometry">
            <mxRectangle width="28" height="29" as="alternateBounds" />
          </mxGeometry>
        </mxCell>
        <mxCell id="ErytSRjThVYuVtmWc2yD-500" value="2" style="shape=partialRectangle;html=1;whiteSpace=wrap;connectable=0;overflow=hidden;fillColor=none;top=0;left=0;bottom=0;right=0;pointerEvents=1;" vertex="1" parent="ErytSRjThVYuVtmWc2yD-495">
          <mxGeometry x="114" width="29" height="29" as="geometry">
            <mxRectangle width="29" height="29" as="alternateBounds" />
          </mxGeometry>
        </mxCell>
        <mxCell id="ErytSRjThVYuVtmWc2yD-501" value="" style="shape=partialRectangle;html=1;whiteSpace=wrap;connectable=0;overflow=hidden;fillColor=none;top=0;left=0;bottom=0;right=0;pointerEvents=1;" vertex="1" parent="ErytSRjThVYuVtmWc2yD-495">
          <mxGeometry x="143" width="28" height="29" as="geometry">
            <mxRectangle width="28" height="29" as="alternateBounds" />
          </mxGeometry>
        </mxCell>
        <mxCell id="ErytSRjThVYuVtmWc2yD-502" value="" style="shape=partialRectangle;html=1;whiteSpace=wrap;connectable=0;overflow=hidden;fillColor=none;top=0;left=0;bottom=0;right=0;pointerEvents=1;" vertex="1" parent="ErytSRjThVYuVtmWc2yD-495">
          <mxGeometry x="171" width="29" height="29" as="geometry">
            <mxRectangle width="29" height="29" as="alternateBounds" />
          </mxGeometry>
        </mxCell>
        <mxCell id="ErytSRjThVYuVtmWc2yD-503" value="" style="shape=partialRectangle;collapsible=0;dropTarget=0;pointerEvents=0;fillColor=none;top=0;left=0;bottom=0;right=0;points=[[0,0.5],[1,0.5]];portConstraint=eastwest;" vertex="1" parent="ErytSRjThVYuVtmWc2yD-478">
          <mxGeometry y="86" width="200" height="28" as="geometry" />
        </mxCell>
        <mxCell id="ErytSRjThVYuVtmWc2yD-504" value="" style="shape=partialRectangle;html=1;whiteSpace=wrap;connectable=0;overflow=hidden;fillColor=none;top=0;left=0;bottom=0;right=0;pointerEvents=1;" vertex="1" parent="ErytSRjThVYuVtmWc2yD-503">
          <mxGeometry width="29" height="28" as="geometry">
            <mxRectangle width="29" height="28" as="alternateBounds" />
          </mxGeometry>
        </mxCell>
        <mxCell id="ErytSRjThVYuVtmWc2yD-505" value="2" style="shape=partialRectangle;html=1;whiteSpace=wrap;connectable=0;overflow=hidden;fillColor=none;top=0;left=0;bottom=0;right=0;pointerEvents=1;" vertex="1" parent="ErytSRjThVYuVtmWc2yD-503">
          <mxGeometry x="29" width="28" height="28" as="geometry">
            <mxRectangle width="28" height="28" as="alternateBounds" />
          </mxGeometry>
        </mxCell>
        <mxCell id="ErytSRjThVYuVtmWc2yD-506" value="" style="shape=partialRectangle;html=1;whiteSpace=wrap;connectable=0;overflow=hidden;fillColor=none;top=0;left=0;bottom=0;right=0;pointerEvents=1;" vertex="1" parent="ErytSRjThVYuVtmWc2yD-503">
          <mxGeometry x="57" width="29" height="28" as="geometry">
            <mxRectangle width="29" height="28" as="alternateBounds" />
          </mxGeometry>
        </mxCell>
        <mxCell id="ErytSRjThVYuVtmWc2yD-507" value="1" style="shape=partialRectangle;html=1;whiteSpace=wrap;connectable=0;overflow=hidden;fillColor=none;top=0;left=0;bottom=0;right=0;pointerEvents=1;" vertex="1" parent="ErytSRjThVYuVtmWc2yD-503">
          <mxGeometry x="86" width="28" height="28" as="geometry">
            <mxRectangle width="28" height="28" as="alternateBounds" />
          </mxGeometry>
        </mxCell>
        <mxCell id="ErytSRjThVYuVtmWc2yD-508" value="1" style="shape=partialRectangle;html=1;whiteSpace=wrap;connectable=0;overflow=hidden;fillColor=none;top=0;left=0;bottom=0;right=0;pointerEvents=1;" vertex="1" parent="ErytSRjThVYuVtmWc2yD-503">
          <mxGeometry x="114" width="29" height="28" as="geometry">
            <mxRectangle width="29" height="28" as="alternateBounds" />
          </mxGeometry>
        </mxCell>
        <mxCell id="ErytSRjThVYuVtmWc2yD-509" value="" style="shape=partialRectangle;html=1;whiteSpace=wrap;connectable=0;overflow=hidden;fillColor=none;top=0;left=0;bottom=0;right=0;pointerEvents=1;" vertex="1" parent="ErytSRjThVYuVtmWc2yD-503">
          <mxGeometry x="143" width="28" height="28" as="geometry">
            <mxRectangle width="28" height="28" as="alternateBounds" />
          </mxGeometry>
        </mxCell>
        <mxCell id="ErytSRjThVYuVtmWc2yD-510" value="" style="shape=partialRectangle;html=1;whiteSpace=wrap;connectable=0;overflow=hidden;fillColor=none;top=0;left=0;bottom=0;right=0;pointerEvents=1;" vertex="1" parent="ErytSRjThVYuVtmWc2yD-503">
          <mxGeometry x="171" width="29" height="28" as="geometry">
            <mxRectangle width="29" height="28" as="alternateBounds" />
          </mxGeometry>
        </mxCell>
        <mxCell id="ErytSRjThVYuVtmWc2yD-511" value="" style="shape=partialRectangle;collapsible=0;dropTarget=0;pointerEvents=0;fillColor=none;top=0;left=0;bottom=0;right=0;points=[[0,0.5],[1,0.5]];portConstraint=eastwest;" vertex="1" parent="ErytSRjThVYuVtmWc2yD-478">
          <mxGeometry y="114" width="200" height="29" as="geometry" />
        </mxCell>
        <mxCell id="ErytSRjThVYuVtmWc2yD-512" value="" style="shape=partialRectangle;html=1;whiteSpace=wrap;connectable=0;overflow=hidden;fillColor=none;top=0;left=0;bottom=0;right=0;pointerEvents=1;" vertex="1" parent="ErytSRjThVYuVtmWc2yD-511">
          <mxGeometry width="29" height="29" as="geometry">
            <mxRectangle width="29" height="29" as="alternateBounds" />
          </mxGeometry>
        </mxCell>
        <mxCell id="ErytSRjThVYuVtmWc2yD-513" value="" style="shape=partialRectangle;html=1;whiteSpace=wrap;connectable=0;overflow=hidden;fillColor=none;top=0;left=0;bottom=0;right=0;pointerEvents=1;" vertex="1" parent="ErytSRjThVYuVtmWc2yD-511">
          <mxGeometry x="29" width="28" height="29" as="geometry">
            <mxRectangle width="28" height="29" as="alternateBounds" />
          </mxGeometry>
        </mxCell>
        <mxCell id="ErytSRjThVYuVtmWc2yD-514" value="" style="shape=partialRectangle;html=1;whiteSpace=wrap;connectable=0;overflow=hidden;fillColor=none;top=0;left=0;bottom=0;right=0;pointerEvents=1;" vertex="1" parent="ErytSRjThVYuVtmWc2yD-511">
          <mxGeometry x="57" width="29" height="29" as="geometry">
            <mxRectangle width="29" height="29" as="alternateBounds" />
          </mxGeometry>
        </mxCell>
        <mxCell id="ErytSRjThVYuVtmWc2yD-515" value="1" style="shape=partialRectangle;html=1;whiteSpace=wrap;connectable=0;overflow=hidden;fillColor=none;top=0;left=0;bottom=0;right=0;pointerEvents=1;" vertex="1" parent="ErytSRjThVYuVtmWc2yD-511">
          <mxGeometry x="86" width="28" height="29" as="geometry">
            <mxRectangle width="28" height="29" as="alternateBounds" />
          </mxGeometry>
        </mxCell>
        <mxCell id="ErytSRjThVYuVtmWc2yD-516" value="" style="shape=partialRectangle;html=1;whiteSpace=wrap;connectable=0;overflow=hidden;fillColor=none;top=0;left=0;bottom=0;right=0;pointerEvents=1;" vertex="1" parent="ErytSRjThVYuVtmWc2yD-511">
          <mxGeometry x="114" width="29" height="29" as="geometry">
            <mxRectangle width="29" height="29" as="alternateBounds" />
          </mxGeometry>
        </mxCell>
        <mxCell id="ErytSRjThVYuVtmWc2yD-517" value="1" style="shape=partialRectangle;html=1;whiteSpace=wrap;connectable=0;overflow=hidden;fillColor=none;top=0;left=0;bottom=0;right=0;pointerEvents=1;" vertex="1" parent="ErytSRjThVYuVtmWc2yD-511">
          <mxGeometry x="143" width="28" height="29" as="geometry">
            <mxRectangle width="28" height="29" as="alternateBounds" />
          </mxGeometry>
        </mxCell>
        <mxCell id="ErytSRjThVYuVtmWc2yD-518" value="" style="shape=partialRectangle;html=1;whiteSpace=wrap;connectable=0;overflow=hidden;fillColor=none;top=0;left=0;bottom=0;right=0;pointerEvents=1;" vertex="1" parent="ErytSRjThVYuVtmWc2yD-511">
          <mxGeometry x="171" width="29" height="29" as="geometry">
            <mxRectangle width="29" height="29" as="alternateBounds" />
          </mxGeometry>
        </mxCell>
        <mxCell id="ErytSRjThVYuVtmWc2yD-519" value="" style="shape=partialRectangle;collapsible=0;dropTarget=0;pointerEvents=0;fillColor=none;top=0;left=0;bottom=0;right=0;points=[[0,0.5],[1,0.5]];portConstraint=eastwest;" vertex="1" parent="ErytSRjThVYuVtmWc2yD-478">
          <mxGeometry y="143" width="200" height="28" as="geometry" />
        </mxCell>
        <mxCell id="ErytSRjThVYuVtmWc2yD-520" value="" style="shape=partialRectangle;html=1;whiteSpace=wrap;connectable=0;overflow=hidden;fillColor=none;top=0;left=0;bottom=0;right=0;pointerEvents=1;" vertex="1" parent="ErytSRjThVYuVtmWc2yD-519">
          <mxGeometry width="29" height="28" as="geometry">
            <mxRectangle width="29" height="28" as="alternateBounds" />
          </mxGeometry>
        </mxCell>
        <mxCell id="ErytSRjThVYuVtmWc2yD-521" value="" style="shape=partialRectangle;html=1;whiteSpace=wrap;connectable=0;overflow=hidden;fillColor=none;top=0;left=0;bottom=0;right=0;pointerEvents=1;" vertex="1" parent="ErytSRjThVYuVtmWc2yD-519">
          <mxGeometry x="29" width="28" height="28" as="geometry">
            <mxRectangle width="28" height="28" as="alternateBounds" />
          </mxGeometry>
        </mxCell>
        <mxCell id="ErytSRjThVYuVtmWc2yD-522" value="" style="shape=partialRectangle;html=1;whiteSpace=wrap;connectable=0;overflow=hidden;fillColor=none;top=0;left=0;bottom=0;right=0;pointerEvents=1;" vertex="1" parent="ErytSRjThVYuVtmWc2yD-519">
          <mxGeometry x="57" width="29" height="28" as="geometry">
            <mxRectangle width="29" height="28" as="alternateBounds" />
          </mxGeometry>
        </mxCell>
        <mxCell id="ErytSRjThVYuVtmWc2yD-523" value="1" style="shape=partialRectangle;html=1;whiteSpace=wrap;connectable=0;overflow=hidden;fillColor=none;top=0;left=0;bottom=0;right=0;pointerEvents=1;" vertex="1" parent="ErytSRjThVYuVtmWc2yD-519">
          <mxGeometry x="86" width="28" height="28" as="geometry">
            <mxRectangle width="28" height="28" as="alternateBounds" />
          </mxGeometry>
        </mxCell>
        <mxCell id="ErytSRjThVYuVtmWc2yD-524" value="" style="shape=partialRectangle;html=1;whiteSpace=wrap;connectable=0;overflow=hidden;fillColor=none;top=0;left=0;bottom=0;right=0;pointerEvents=1;" vertex="1" parent="ErytSRjThVYuVtmWc2yD-519">
          <mxGeometry x="114" width="29" height="28" as="geometry">
            <mxRectangle width="29" height="28" as="alternateBounds" />
          </mxGeometry>
        </mxCell>
        <mxCell id="ErytSRjThVYuVtmWc2yD-525" value="" style="shape=partialRectangle;html=1;whiteSpace=wrap;connectable=0;overflow=hidden;fillColor=none;top=0;left=0;bottom=0;right=0;pointerEvents=1;" vertex="1" parent="ErytSRjThVYuVtmWc2yD-519">
          <mxGeometry x="143" width="28" height="28" as="geometry">
            <mxRectangle width="28" height="28" as="alternateBounds" />
          </mxGeometry>
        </mxCell>
        <mxCell id="ErytSRjThVYuVtmWc2yD-526" value="" style="shape=partialRectangle;html=1;whiteSpace=wrap;connectable=0;overflow=hidden;fillColor=none;top=0;left=0;bottom=0;right=0;pointerEvents=1;" vertex="1" parent="ErytSRjThVYuVtmWc2yD-519">
          <mxGeometry x="171" width="29" height="28" as="geometry">
            <mxRectangle width="29" height="28" as="alternateBounds" />
          </mxGeometry>
        </mxCell>
        <mxCell id="ErytSRjThVYuVtmWc2yD-527" value="" style="shape=partialRectangle;collapsible=0;dropTarget=0;pointerEvents=0;fillColor=none;top=0;left=0;bottom=0;right=0;points=[[0,0.5],[1,0.5]];portConstraint=eastwest;" vertex="1" parent="ErytSRjThVYuVtmWc2yD-478">
          <mxGeometry y="171" width="200" height="29" as="geometry" />
        </mxCell>
        <mxCell id="ErytSRjThVYuVtmWc2yD-528" value="" style="shape=partialRectangle;html=1;whiteSpace=wrap;connectable=0;overflow=hidden;fillColor=none;top=0;left=0;bottom=0;right=0;pointerEvents=1;" vertex="1" parent="ErytSRjThVYuVtmWc2yD-527">
          <mxGeometry width="29" height="29" as="geometry">
            <mxRectangle width="29" height="29" as="alternateBounds" />
          </mxGeometry>
        </mxCell>
        <mxCell id="ErytSRjThVYuVtmWc2yD-529" value="" style="shape=partialRectangle;html=1;whiteSpace=wrap;connectable=0;overflow=hidden;fillColor=none;top=0;left=0;bottom=0;right=0;pointerEvents=1;" vertex="1" parent="ErytSRjThVYuVtmWc2yD-527">
          <mxGeometry x="29" width="28" height="29" as="geometry">
            <mxRectangle width="28" height="29" as="alternateBounds" />
          </mxGeometry>
        </mxCell>
        <mxCell id="ErytSRjThVYuVtmWc2yD-530" value="2" style="shape=partialRectangle;html=1;whiteSpace=wrap;connectable=0;overflow=hidden;fillColor=none;top=0;left=0;bottom=0;right=0;pointerEvents=1;" vertex="1" parent="ErytSRjThVYuVtmWc2yD-527">
          <mxGeometry x="57" width="29" height="29" as="geometry">
            <mxRectangle width="29" height="29" as="alternateBounds" />
          </mxGeometry>
        </mxCell>
        <mxCell id="ErytSRjThVYuVtmWc2yD-531" value="2" style="shape=partialRectangle;html=1;whiteSpace=wrap;connectable=0;overflow=hidden;fillColor=none;top=0;left=0;bottom=0;right=0;pointerEvents=1;" vertex="1" parent="ErytSRjThVYuVtmWc2yD-527">
          <mxGeometry x="86" width="28" height="29" as="geometry">
            <mxRectangle width="28" height="29" as="alternateBounds" />
          </mxGeometry>
        </mxCell>
        <mxCell id="ErytSRjThVYuVtmWc2yD-532" value="" style="shape=partialRectangle;html=1;whiteSpace=wrap;connectable=0;overflow=hidden;fillColor=none;top=0;left=0;bottom=0;right=0;pointerEvents=1;" vertex="1" parent="ErytSRjThVYuVtmWc2yD-527">
          <mxGeometry x="114" width="29" height="29" as="geometry">
            <mxRectangle width="29" height="29" as="alternateBounds" />
          </mxGeometry>
        </mxCell>
        <mxCell id="ErytSRjThVYuVtmWc2yD-533" value="" style="shape=partialRectangle;html=1;whiteSpace=wrap;connectable=0;overflow=hidden;fillColor=none;top=0;left=0;bottom=0;right=0;pointerEvents=1;" vertex="1" parent="ErytSRjThVYuVtmWc2yD-527">
          <mxGeometry x="143" width="28" height="29" as="geometry">
            <mxRectangle width="28" height="29" as="alternateBounds" />
          </mxGeometry>
        </mxCell>
        <mxCell id="ErytSRjThVYuVtmWc2yD-534" value="" style="shape=partialRectangle;html=1;whiteSpace=wrap;connectable=0;overflow=hidden;fillColor=none;top=0;left=0;bottom=0;right=0;pointerEvents=1;" vertex="1" parent="ErytSRjThVYuVtmWc2yD-527">
          <mxGeometry x="171" width="29" height="29" as="geometry">
            <mxRectangle width="29" height="29" as="alternateBounds" />
          </mxGeometry>
        </mxCell>
        <mxCell id="ErytSRjThVYuVtmWc2yD-535" value="Nächster Spieler: 1 Gewinner: X&amp;nbsp;" style="rounded=0;whiteSpace=wrap;html=1;" vertex="1" parent="1">
          <mxGeometry x="1040" y="500" width="200" height="30" as="geometry" />
        </mxCell>
        <mxCell id="ErytSRjThVYuVtmWc2yD-544" style="edgeStyle=none;rounded=0;orthogonalLoop=1;jettySize=auto;html=1;" edge="1" parent="1" source="ErytSRjThVYuVtmWc2yD-71" target="ErytSRjThVYuVtmWc2yD-247">
          <mxGeometry relative="1" as="geometry">
            <mxPoint x="330" y="190" as="targetPoint" />
          </mxGeometry>
        </mxCell>
      </root>
    </mxGraphModel>
  </diagram>
</mxfile>
